<?xml version="1.0" encoding="utf-8" ?>
<svg baseProfile="full" height="200mm" version="1.1" viewBox="0,0,200,200" width="200mm" xmlns="http://www.w3.org/2000/svg" xmlns:ev="http://www.w3.org/2001/xml-events" xmlns:xlink="http://www.w3.org/1999/xlink"><defs /><rect fill="#1a1a1a" height="200" width="200" x="0" y="0" /><text alignment-baseline="middle" fill="#e1ed5e" style="dominant-baseline: central; font-size:9.0px; font-family:Arial;" text-anchor="middle" x="100.0" y="100.0">2023</text><line stroke="#e1ed5e" stroke-width="0.3" x1="100.0" x2="100.0" y1="15.0" y2="10.0" /><path d="M 100.0 14.0 a86.0,86.0 0 0,1 42.46469731375804,11.215312516191453" fill="none" id="id13" stroke="none" /><text fill="#e1ed5e" style="font-size:6.75px; font-family:Arial;" text-anchor="middle"><textPath startOffset="22.20632615414155" xlink:href="#id13">January</textPath></text><path d="M 100.0 79.0 l 0.0 -5.6267344595702795 a26.62673445957028,26.62673445957028 0 0,0 0.4583354635194196,0.003945038036181683 l -0.09685498424689122 5.6259007981426565" fill="#ff1e03" stroke="none" /><path d="M 100.36148047927253 79.00311137660856 l 0.3323885804415979 -19.307061939457306 a40.309922912907986,40.309922912907986 0 0,0 0.6936634513368122,0.017915280441506184 l -0.6646786669732778 19.29847986687344" fill="#ffde14" stroke="none" /><path d="M 100.72285384407766 79.0124445844662 l 0.2716151392184595 -7.886155455559703 a28.8908315565032,28.8908315565032 0 0,0 0.49686612745365377,0.02139610063381722 l -0.4073220990614448 7.880311628401691" fill="#ff4006" stroke="none" /><path d="M 101.08401301168833 79.027996857942 l 0.3574888431526253 -6.916205858240303 a27.925438740364115,27.925438740364115 0 0,0 0.47983610001561505,0.02894502392849172 l -0.4764869920078523 6.909027564931508" fill="#ff3204" stroke="none" /><path d="M 101.44485096284872 79.0497635885617 l 1.1429756603411134 -16.573065951005873 a37.61243234377562,37.61243234377562 0 0,0 0.6455185532686631,0.05010466348910666 l -1.4280844029721176 16.5509360253283" fill="#ffba11" stroke="none" /><path d="M 102.52436894288641 79.15227682838746 l 2.1637448081883486 -17.86947700423932 a39.0,39.0 0 0,0 0.6657583613425715,0.0864345426951747 l -2.471017898038766 17.82958413838001" fill="#ffcd13" stroke="none" /><path d="M 102.88285421437855 79.19881850522331 l 1.3170521343704407 -9.503165421435709 a30.59399704772839,30.59399704772839 0 0,0 0.5210172550924667,0.07678439980849132 l -1.480438369891563 9.479086537466248" fill="#ff5908" stroke="none" /><path d="M 103.2404852339499 79.25152402106235 l 2.4297375283308167 -15.557346231214037 a36.745940626537646,36.745940626537646 0 0,0 0.6241049435448067,0.10298266322240049 l -2.6971716780144988 15.513217305052011" fill="#ffaf10" stroke="none" /><path d="M 103.95276090670814 79.375362276772 l 1.5116608394552056 -7.887514046509593 a29.03106445793013,29.03106445793013 0 0,0 0.48998021013407134,0.09828542065839985 l -1.6472074590564023 7.860324669773985" fill="#ff4206" stroke="none" /><path d="M 104.307194497241 79.44645832069477 l 2.356034078021746 -11.242781037982429 a32.48699360341151,32.48699360341151 0 0,0 0.5463341981629797,0.11940749493472211 l -2.549211000338254 11.200560044951835" fill="#ff740a" stroke="none" /><path d="M 105.36241919743992 79.69619591428918 l 4.8428001615456315 -18.336363138714276 a39.96509758897818,39.96509758897818 0 0,0 0.6636149469836703,0.18139103321048872 l -5.157712997753013 18.250285564677494" fill="#ffd914" stroke="none" /><path d="M 105.71112130821622 79.79150937346287 l 1.6627941933010313 -5.883706378437881 a27.114154502214205,27.114154502214205 0 0,0 0.44804175478222424,0.13079567433479802 l -1.7638261658066827 5.85421237518438" fill="#ff2603" stroke="none" /><path d="M 109.41281617654863 81.2277094730956 l 8.019695563113748 -15.993944025293667 a38.89194685911104,38.89194685911104 0 0,0 0.5958607628178293,0.3052230260728817 l -8.293816813520332 15.853528473908284" fill="#ffcb12" stroke="none" /><path d="M 109.73455568895987 81.39251694778311 l 2.3849307901989785 -4.55876576983037 a26.144923732983436,26.144923732983436 0 0,0 0.396973259066728,0.2120493669388691 l -2.4630490957940174 4.517037676389747" fill="#ff1702" stroke="none" /><path d="M 110.36928655335952 81.73862282372117 l 8.883295072358148 -15.64439376322893 a38.990552730851235,38.990552730851235 0 0,0 0.5807796331996754,0.3364250502806807 l -9.151271438023153 15.489164555558201" fill="#ffcd13" stroke="none" /><line stroke="#e1ed5e" stroke-width="0.3" x1="143.23703022742887" x2="145.7803849466894" y1="26.81831364943548" y2="22.513508569990506" /><path d="M 143.74570117128098 25.957352633546492 a86.0,86.0 0 0,1 28.547481713284135,27.462654790039103" fill="none" id="id14" stroke="none" /><text fill="#e1ed5e" style="font-size:6.75px; font-family:Arial;" text-anchor="middle"><textPath startOffset="19.985693538727396" xlink:href="#id14">February</textPath></text><path d="M 110.99172775467656 82.1063720568725 l 2.107432457905934 -3.4307265571598142 a25.026308020337872,25.026308020337872 0 0,0 0.3651229268697116,0.22863994330937173 l -2.1661745371479086 3.393942272527498" fill="#ff0601" stroke="none" /><path d="M 111.2981086023043 82.29822771554956 l 4.999450779532742 -7.833093339938077 a30.29257011645071,30.29257011645071 0 0,0 0.4371260770964902,0.284318959996446 l -5.1335438824135124 7.745875455782103" fill="#ff5407" stroke="none" /><path d="M 111.90073688211348 82.69761687909136 l 17.027542765909676 -24.75620387727655 a51.046744300475645,51.046744300475645 0 0,0 0.7196834006193612,0.5041842140701109 l -17.451157306112687 24.459434820442507" fill="#9cff22" stroke="none" /><path d="M 112.19680574252982 82.90503203632743 l 3.008063400846326 -4.216083174208035 a26.179170083647694,26.179170083647694 0 0,0 0.36458194785397835,0.2648842900589465 l -3.0801906650540927 4.163679649332414" fill="#ff1802" stroke="none" /><path d="M 112.77801427241765 83.33499621200491 l 10.166663479661805 -13.259296928909993 a37.70838117106774,37.70838117106774 0 0,0 0.5116981443520677,0.3993885180882636 l -10.393394179173303 13.082330021598505" fill="#ffbc11" stroke="none" /><path d="M 113.34407831869373 83.78471172551755 l 2.855599618086027 -3.4700314175239138 a25.493947843201575,25.493947843201575 0 0,0 0.33645026180479437,0.2817674184699724 l -2.9149074168499385 3.420362841660122" fill="#ff0d01" stroke="none" /><path d="M 114.16331599549186 84.49514656593476 l 6.497490488037071 -7.1129273496626 a30.63385271444973,30.63385271444973 0 0,0 0.3862667946560057,0.3589928887567145 l -6.618965166487923 7.000029874831245" fill="#ff5908" stroke="none" /><path d="M 114.42810811169701 84.74124197986012 l 11.154798062203872 -11.796998128722402 a37.23572248646875,37.23572248646875 0 0,0 0.46192998304395144,0.44437627770163535 l -11.356211288860242 11.603238764258464" fill="#ffb510" stroke="none" /><path d="M 114.68862486808459 84.99185889309783 l 5.581257568376817 -5.702664605600207 a28.979399704772838,28.979399704772838 0 0,0 0.35349927319068875,0.35198123496990885 l -5.678592641734828 5.60574751998018" fill="#ff4106" stroke="none" /><path d="M 114.94478906791727 85.2469230424477 l 2.7615591861389146 -2.7261338390787144 a24.880465802853863,24.880465802853863 0 0,0 0.2982524942043349,0.30737541241196487 l -2.8080759440463585 2.678194231116635" fill="#ff0400" stroke="none" /><path d="M 115.4437574822437 85.77008943001954 l 2.6676929850886153 -2.458017917570938 a24.62745612596359,24.62745612596359 0 0,0 0.28457184973403027,0.31423134407587683 l -2.7096084754386816 2.4117337862255117" fill="#ff0000" stroke="none" /><path d="M 115.68641384162765 86.03803664274999 l 11.168341469041794 -9.940575068739705 a35.95148433655896,35.95148433655896 0 0,0 0.4074640851692657,0.46580188663767047 l -11.337797417788908 9.746857625899088" fill="#ffa40f" stroke="none" /><path d="M 116.82858285166822 87.43820079747576 l 12.162997347460545 -9.079144199268594 a36.177923568968346,36.177923568968346 0 0,0 0.36821785087204745,0.5022487347779289 l -12.317477810846219 8.868433020819172" fill="#ffa70f" stroke="none" /><path d="M 117.2510076193507 88.02491185347247 l 11.725705392178634 -8.139603132169816 a35.273938002296205,35.273938002296205 0 0,0 0.34194813222787723,0.5017666898610977 l -11.864077990075245 7.936558419038312" fill="#ff9a0e" stroke="none" /><path d="M 117.65298651832404 88.62581576622439 l 7.518412707504299 -4.844268769590179 a29.943906839429225,29.943906839429225 0 0,0 0.27544459342665295,0.4356871986387747 l -7.600684897176908 4.714133923237197" fill="#ff4f07" stroke="none" /><line stroke="#e1ed5e" stroke-width="0.3" x1="172.23445277983987" x2="176.4835382374775" y1="55.19839476539836" y2="52.563006222186495" /><path d="M 173.08426987136738 54.67131705675599 a86.0,86.0 0 0,1 12.851231095245387,41.99856678651699" fill="none" id="id15" stroke="none" /><text fill="#e1ed5e" style="font-size:6.75px; font-family:Arial;" text-anchor="middle"><textPath startOffset="22.20632615414155" xlink:href="#id15">March</textPath></text><path d="M 118.3937258080291 89.86733742301442 l 13.071832516999171 -7.2009591498750956 a35.92402821059538,35.92402821059538 0 0,0 0.29370784224793395,0.5441960251948388 l -13.19384845846557 6.9748821413477975" fill="#ffa30f" stroke="none" /><path d="M 118.73160827565052 90.50648371742162 l 9.539650526868703 -4.834866620858287 a31.694899130720025,31.694899130720025 0 0,0 0.24245086599056673,0.4887661512846023 l -9.621461405812678 4.669940881074735" fill="#ff6809" stroke="none" /><path d="M 119.196687751892 91.48605970444005 l 15.029901369924827 -6.665925109871239 a37.44179104477612,37.44179104477612 0 0,0 0.25622539110778325,0.591403529417234 l -15.142417470875293 6.406222435867402" fill="#ffb811" stroke="none" /><path d="M 119.61058180528143 92.48833698450437 l 13.983205452290925 -5.356145385026902 a35.97392160078727,35.97392160078727 0 0,0 0.21652088685437043,0.5801683293574923 l -14.073330927646921 5.114653918640076" fill="#ffa40f" stroke="none" /><path d="M 119.85752413597 93.16781622104841 l 24.772329987866208 -8.523172876489516 a47.19757257667706,47.19757257667706 0 0,0 0.25770482852595633,0.7705046360029086 l -24.915372110163933 8.095495137564292" fill="#caff1d" stroke="none" /><path d="M 120.78858239683441 97.02765380044208 l 29.33216906101294 -4.193906037891654 a50.63047400360833,50.63047400360833 0 0,0 0.1159293218900811,0.8638081032411763 l -29.400014381960858 3.688379592585813" fill="#a1ff22" stroke="none" /><path d="M 120.83666639777658 97.38593545837742 l 22.685158309847193 -2.8459671440146526 a43.86298179432508,43.86298179432508 0 0,0 0.08753724205762715,0.7499656318569241 l -22.73078590490841 2.455057773832876" fill="#f3ff19" stroke="none" /><path d="M 120.91429891909075 98.10471618934814 l 16.913046932536254 -1.532684607982294 a37.98235197638183,37.98235197638183 0 0,0 0.053402311802490825,0.6516434670860176 l -16.936923728158238 1.2413272236885076" fill="#ffbf11" stroke="none" /><path d="M 120.96714384426684 98.82574320788733 l 16.895649635786196 -0.9462343316446878 a37.92212563555847,37.92212563555847 0 0,0 0.030890987511449034,0.6520599228689229 l -16.90943423153114 0.6552633021527652" fill="#ffbe11" stroke="none" /><line stroke="#e1ed5e" stroke-width="0.3" x1="184.98032266829074" x2="189.97916517819016" y1="98.17113171792111" y2="98.06355123074" /><path d="M 185.9800911702706 98.14961562048488 a86.0,86.0 0 0,1 -9.607161424134198,41.387399972396054" fill="none" id="id16" stroke="none" /><text fill="#e1ed5e" style="font-size:6.75px; font-family:Arial;" text-anchor="middle"><textPath startOffset="21.466115282336823" xlink:href="#id16">April</textPath></text><path d="M 120.99513854157772 99.54816195383933 l 44.43970171415015 -0.9563903545918472 a65.44999179924554,65.44999179924554 0 0,0 0.01454545932726926,1.1265618545555867 l -44.44958018059513 0.19129224197579775" fill="#35ff65" stroke="none" /><path d="M 120.99824983174949 100.27111621757518 l 10.46994906323006 0.13518140849699986 a31.470821715597836,31.470821715597836 0 0,0 -0.01165609897882029,0.5416131177843175 l -10.46607090156623 -0.31538434207143223" fill="#ff6509" stroke="none" /><path d="M 120.9904718944345 100.63252640178507 l 11.167212370033294 0.33651252310624546 a32.17228144989339,32.17228144989339 0 0,0 -0.02144492007663369,0.5533980988176529 l -11.159765317105457 -0.5286878689379045" fill="#ff6f0a" stroke="none" /><path d="M 120.9764740272857 100.99374915477107 l 25.235761356427858 1.195530597055233 a46.26406429391504,46.26406429391504 0 0,0 -0.04453169343590396,0.7951433009976372 l -25.211443312104425 -1.6297456143882936" fill="#d5ff1c" stroke="none" /><path d="M 120.95626037817324 101.35467743843564 l 7.956887653792773 0.5143578095635296 a28.973495161554865,28.973495161554865 0 0,0 -0.03645616427097339,0.49741539692006564 l -7.946854930857461 -0.6512463429803654" fill="#ff4106" stroke="none" /><path d="M 120.89721153311464 102.0752229133903 l 25.211499830885916 2.503658540618319 a46.335509266852554,46.335509266852554 0 0,0 -0.085649420405519,0.7930072598975305 l -25.164668108979345 -2.937262122400641" fill="#d4ff1c" stroke="none" /><path d="M 120.8583938346157 102.4346265915055 l 15.227179761155476 1.7773418727294183 a36.33055601115303,36.33055601115303 0 0,0 -0.07784858041546361,0.6205297818127596 l -15.194329671493165 -2.039189408829573" fill="#ffa90f" stroke="none" /><path d="M 120.81339534386255 102.79330883721812 l 16.2207837711619 2.1769470048504895 a37.36621289158603,37.36621289158603 0 0,0 -0.09104179726255733,0.6367461180094316 l -16.180907922882742 -2.4558385948403303" fill="#ffb711" stroke="none" /><path d="M 120.70491114924044 103.5080841355445 l 23.938310076340127 4.0559268863916165 a45.27948171231753,45.27948171231753 0 0,0 -0.13681639065162812,0.7673389770443789 l -23.86494724334931 -4.467384614169213" fill="#e1ff1b" stroke="none" /><path d="M 120.64145759157962 103.86396538481128 l 31.305912433207816 5.860291670060836 a52.84969657208464,52.84969657208464 0 0,0 -0.1750836634636068,0.8927478279795863 l -31.200398836768542 -6.398303225108368" fill="#88ff25" stroke="none" /><path d="M 120.5718875245553 104.21870165774334 l 41.85281805734932 8.582807615928118 a63.723798589470235,63.723798589470235 0 0,0 -0.22960583220963063,1.0726420083659594 l -41.69887818641524 -9.301963443710246" fill="#33ff50" stroke="none" /><path d="M 120.49622156327973 104.57218783832717 l 13.385767792902744 2.9860257179805796 a34.71477775955388,34.71477775955388 0 0,0 -0.13512220418631266,0.5821029191579946 l -13.332385022785878 -3.2159972944871393" fill="#ff930d" stroke="none" /><path d="M 120.41448212921028 104.9243191809786 l 61.24344638763086 14.772957542935806 a84.0,84.0 0 0,0 -0.35115474281975656,1.4026886424104164 l -60.980080330516046 -15.82497402474362" fill="#4dd2ff" stroke="none" /><path d="M 120.32669344350535 105.2749913415812 l 9.238384296751347 2.3974581655893368 a30.544398884697394,30.544398884697394 0 0,0 -0.1364489912551208,0.5077774567309777 l -9.195747229154447 -2.556126555495863" fill="#ff5808" stroke="none" /><path d="M 120.23288151984713 105.62410040840565 l 18.640381798638316 5.181435910832698 a40.34712153518123,40.34712153518123 0 0,0 -0.1917590385553577,0.6675383696336578 l -18.54843012319686 -5.501531755970938" fill="#ffde14" stroke="none" /><path d="M 120.13307415673323 105.97154293290107 l 22.090952995977474 6.552256909065291 a44.042184680990644,44.042184680990644 0 0,0 -0.2218325723613972,0.7249616816237833 l -21.974893651109944 -6.931545563241132" fill="#f0ff19" stroke="none" /><path d="M 120.02730092923936 106.31721596034902 l 15.886320124155688 5.011025469388686 a37.657897326554036,37.657897326554036 0 0,0 -0.20031804484812582,0.6165155488282154 l -15.797709828291316 -5.283739918194697" fill="#ffbb11" stroke="none" /><path d="M 119.9155931802556 106.66101706037122 l 15.38613614603575 5.146083997314466 a37.2239134000328,37.2239134000328 0 0,0 -0.2084701678104283,0.6059118903795802 l -15.29527514728209 -5.410168590783346" fill="#ffb510" stroke="none" /><path d="M 119.67450827220406 107.3425965602758 l 5.242540309632687 1.9565347154825654 a26.595735607675905,26.595735607675905 0 0,0 -0.16376098821386464,0.42752826494704677 l -5.208085041825315 -2.046486547262756" fill="#ff1e03" stroke="none" /><path d="M 119.54520255179757 107.68017299344265 l 14.74250220265135 5.792979989463367 a36.83982286370346,36.83982286370346 0 0,0 -0.2369982742908133,0.5882102807027877 l -14.640601314103144 -6.045889638008968" fill="#ffb010" stroke="none" /><path d="M 119.41010516605496 108.01547362559984 l 15.450496468153396 6.3803387917489385 a37.71605707725111,37.71605707725111 0 0,0 -0.2529652206012234,0.597935056783137 l -15.338380266359865 -6.64534837419824" fill="#ffbc11" stroke="none" /><path d="M 119.26925614724726 108.34839909993367 l 9.707815037270128 4.205907778699918 a31.57976053796949,31.57976053796949 0 0,0 -0.22039502137576014,0.4969325906159331 l -9.633978931163096 -4.372388705808539" fill="#ff6709" stroke="none" /><path d="M 119.12269723197855 108.67885076344098 l 11.392430102854632 5.170463114913732 a33.51084139740856,33.51084139740856 0 0,0 -0.24291431770191238,0.523215829657719 l -11.301741168312889 -5.365799011850281" fill="#ff820c" stroke="none" /><path d="M 118.97047184881838 109.00673069616215 l 14.776779217800035 7.0156647674348935 a37.35765130391996,37.35765130391996 0 0,0 -0.28079921899270655,0.5785295611063332 l -14.653826742192614 -7.268983284506501" fill="#ffb711" stroke="none" /><path d="M 118.64920377521936 109.65438752849418 l 14.623013761749705 7.57009486260357 a37.466294899130716,37.466294899130716 0 0,0 -0.3014207880626008,0.5701745376246253 l -14.49054046546221 -7.82068441531433" fill="#ffb811" stroke="none" /><line stroke="#e1ed5e" stroke-width="0.3" x1="174.80103733775053" x2="179.2010983576182" y1="140.37084112569926" y2="142.7455964860345" /><path d="M 175.68104954172406 140.8457921977663 a86.0,86.0 0 0,1 -30.038265399797805,32.042727171017184" fill="none" id="id17" stroke="none" /><text fill="#e1ed5e" style="font-size:6.75px; font-family:Arial;" text-anchor="middle"><textPath startOffset="22.206326154141568" xlink:href="#id17">May</textPath></text><path d="M 117.14729908036423 112.12312394758627 l 12.029104113641491 8.504565031765809 a35.73183532885025,35.73183532885025 0 0,0 -0.3593945560457391,0.4991676048113663 l -11.880929765220149 -8.710366242028305" fill="#ffa10e" stroke="none" /><path d="M 116.93607887273984 112.41649034213515 l 12.261881421018792 8.989656542373904 a36.20419878628834,36.20419878628834 0 0,0 -0.3727976231364798,0.49942333790820104 l -12.10532253118722 -9.199392759791419" fill="#ffa70f" stroke="none" /><line stroke="#e1ed5e" stroke-width="0.3" x1="143.8653032363475" x2="146.44561519142675" y1="172.8068346515853" y2="177.08958963109032" /><path d="M 144.38136562736335 173.6633856474863 a86.0,86.0 0 0,1 -40.68145358897372,12.25698825130547" fill="none" id="id18" stroke="none" /><text fill="#e1ed5e" style="font-size:6.75px; font-family:Arial;" text-anchor="middle"><textPath startOffset="21.466115282336833" xlink:href="#id18">June</textPath></text><line stroke="#e1ed5e" stroke-width="0.3" x1="102.19456741930631" x2="102.32365962044197" y1="184.97166512339345" y2="189.96999836594603" /><path d="M 102.22038585953345 185.97133177190398 a86.0,86.0 0 0,1 -42.740103519485714,-10.115201625700543" fill="none" id="id19" stroke="none" /><text fill="#e1ed5e" style="font-size:6.75px; font-family:Arial;" text-anchor="middle"><textPath startOffset="22.20632615414155" xlink:href="#id19">July</textPath></text><line stroke="#e1ed5e" stroke-width="0.3" x1="58.666819895761336" x2="56.23545636021788" y1="174.27360380694188" y2="178.64263932499728" /><path d="M 58.180547188652646 175.14741091055294 a86.0,86.0 0 0,1 -31.652253787137756,-30.449443065178592" fill="none" id="id20" stroke="none" /><text fill="#e1ed5e" style="font-size:6.75px; font-family:Arial;" text-anchor="middle"><textPath startOffset="22.20632615414155" xlink:href="#id20">August</textPath></text><line stroke="#e1ed5e" stroke-width="0.3" x1="26.63291911575756" x2="22.317208475507996" y1="142.92168965132927" y2="145.44649492493687" /><path d="M 25.769776987707644 143.4266507060508 a86.0,86.0 0 0,1 -11.730757126820373,-40.83630448921669" fill="none" id="id21" stroke="none" /><text fill="#e1ed5e" style="font-size:6.75px; font-family:Arial;" text-anchor="middle"><textPath startOffset="21.46611528233685" xlink:href="#id21">September</textPath></text><line stroke="#e1ed5e" stroke-width="0.3" x1="15.007084014347285" x2="10.007500721073583" y1="101.09737516637583" y2="101.16192664675087" /><path d="M 14.007167355692545 101.11028546245083 a86.0,86.0 0 0,1 10.666146001902534,-42.60595125391555" fill="none" id="id22" stroke="none" /><text fill="#e1ed5e" style="font-size:6.75px; font-family:Arial;" text-anchor="middle"><textPath startOffset="22.20632615414155" xlink:href="#id22">October</textPath></text><line stroke="#e1ed5e" stroke-width="0.3" x1="26.266209847984243" x2="21.928928074336255" y1="57.711370442889674" y2="55.22380399835377" /><path d="M 25.398753493254645 57.213857153982495 a86.0,86.0 0 0,1 29.58750427330803,-30.492523968695096" fill="none" id="id23" stroke="none" /><text fill="#e1ed5e" style="font-size:6.75px; font-family:Arial;" text-anchor="middle"><textPath startOffset="21.46611528233685" xlink:href="#id23">November</textPath></text><path d="M 84.80347519578584 85.50635884689758 l -9.471915326783277 -9.033811581770173 a34.08919140560932,34.08919140560932 0 0,0 0.40864131896459005,-0.4211407997790507 l 9.315009744115569 9.195516577099347" fill="#ff8a0c" stroke="none" /><line stroke="#e1ed5e" stroke-width="0.3" x1="56.762969772571076" x2="54.21961505331055" y1="26.818313649435495" y2="22.513508569990535" /><path d="M 56.25429882871897 25.957352633546506 a86.0,86.0 0 0,1 42.265352541879196,-11.944610805530505" fill="none" id="id24" stroke="none" /><text fill="#e1ed5e" style="font-size:6.75px; font-family:Arial;" text-anchor="middle"><textPath startOffset="22.20632615414155" xlink:href="#id24">December</textPath></text></svg>