<?xml version="1.0" encoding="utf-8" ?>
<svg baseProfile="full" height="200mm" version="1.1" viewBox="0,0,200,200" width="200mm" xmlns="http://www.w3.org/2000/svg" xmlns:ev="http://www.w3.org/2001/xml-events" xmlns:xlink="http://www.w3.org/1999/xlink"><defs /><rect fill="#1a1a1a" height="200" width="200" x="0" y="0" /><text alignment-baseline="middle" fill="#e1ed5e" style="dominant-baseline: central; font-size:9.0px; font-family:Arial;" text-anchor="middle" x="100.0" y="100.0">2024</text><line stroke="#e1ed5e" stroke-width="0.3" x1="100.0" x2="100.0" y1="15.0" y2="10.0" /><path d="M 100.0 14.0 a86.0,86.0 0 0,1 42.35913384403234,11.155469271406648" fill="none" id="id25" stroke="none" /><text fill="#e1ed5e" style="font-size:6.75px; font-family:Arial;" text-anchor="middle"><textPath startOffset="22.145653131862478" xlink:href="#id25">January</textPath></text><path d="M 101.08105385017728 79.02784411241856 l 1.4185479972163755 -27.51945217785377 a48.5559889423259,48.5559889423259 0 0,0 0.8320546123185562,0.05005433930321398 l -1.890746961667394 27.491045860725862" fill="#ffa80f" stroke="none" /><path d="M 103.23170211078529 79.25015418208739 l 4.613378061509197 -29.621196569010184 a50.97830120801302,50.97830120801302 0 0,0 0.8635299331346221,0.14209352188562407 l -5.12118549769689 29.53763704862889" fill="#ffd313" stroke="none" /><path d="M 104.29559338865022 79.4440306129975 l 12.88678016595065 -61.66790816100754 a84.0,84.0 0 0,0 1.4089503335234634,0.30707416746512495 l -13.943492916093248 61.4376025354087" fill="#4dd2ff" stroke="none" /><path d="M 107.74402155503746 80.48000691201159 l 11.934948659329525 -30.08386710701527 a53.36482750785777,53.36482750785777 0 0,0 0.8486164797900384,0.34512493457214005 l -12.449619600310003 29.874554915863833" fill="#fffd17" stroke="none" /><path d="M 108.4095320186766 80.7573450057729 l 7.581221616867307 -17.347318695519 a39.93157117430984,39.93157117430984 0 0,0 0.6257592798277035,0.2798941665302219 l -7.8778942995506425 17.214620778078924" fill="#ff0000" stroke="none" /><path d="M 108.73861861582097 80.90454125486305 l 13.8116304452804 -30.180905125375123 a54.191085696974284,54.191085696974284 0 0,0 0.8425714803627886,0.39436599673789374 l -14.327690639514694 29.939362897066697" fill="#f3ff19" stroke="none" /><path d="M 109.3889696526874 81.21577127319529 l 16.267055687876454 -32.54500824435827 a57.383989093800885,57.383989093800885 0 0,0 0.8773541336906829,0.4479832720581655 l -16.823337043280716 32.26096702062728" fill="#beff1e" stroke="none" /><path d="M 109.71004243097381 81.37971332152246 l 10.787056642369361 -20.68560343847529 a44.32926875449691,44.32926875449691 0 0,0 0.6717175764611584,0.3576517748226078 l -11.140563034617077 20.49738119593011" fill="#ff5808" stroke="none" /><path d="M 110.02825361518725 81.54914285379988 l 17.80112804225783 -32.75207061491765 a58.27704775248987,58.27704775248987 0 0,0 0.8748656190989003,0.4852732113162492 l -18.36073784951283 32.44166448816826" fill="#b0ff20" stroke="none" /><line stroke="#e1ed5e" stroke-width="0.3" x1="143.13028292997686" x2="145.6673583964461" y1="26.7553504044142" y2="22.446841604673864" /><path d="M 143.63769802327073 25.89364864446614 a86.0,86.0 0 0,1 29.32050498858742,28.57503671076993" fill="none" id="id26" stroke="none" /><text fill="#e1ed5e" style="font-size:6.75px; font-family:Arial;" text-anchor="middle"><textPath startOffset="20.669276256404974" xlink:href="#id26">February</textPath></text><path d="M 115.8921839302757 86.27271002978787 l 17.50385010080922 -15.11940882279773 a44.129662589464914,44.129662589464914 0 0,0 0.4902709615580464,0.5775379599465846 l -17.76081562587438 14.816704080401593" fill="#ff5407" stroke="none" /><path d="M 117.01052211995028 87.68569379921539 l 20.248106251993686 -14.658067437015285 a45.996894762752305,45.996894762752305 0 0,0 0.45752651573548975,0.6435683419972844 l -20.496747866259135 14.308321868308497" fill="#ff780b" stroke="none" /><path d="M 117.21940702142032 87.97951657250589 l 21.658749733649255 -15.119489417359674 a47.414019010110955,47.414019010110955 0 0,0 0.46016493776637607,0.6713943963969234 l -21.915104408230956 14.745460285892703" fill="#ff930d" stroke="none" /><path d="M 117.42321728460499 88.27688183743584 l 20.92409170851207 -14.078662714030266 a46.21956299466051,46.21956299466051 0 0,0 0.4372713148001477,0.6620845030080625 l -21.16268746223294 13.717398332683144" fill="#ff7c0b" stroke="none" /><line stroke="#e1ed5e" stroke-width="0.3" x1="172.87174338648825" x2="177.1583165268699" y1="56.24261187166439" y2="53.66864786411523" /><path d="M 173.72905801456457 55.72781907015455 a86.0,86.0 0 0,1 12.242430191666344,42.057860355516425" fill="none" id="id27" stroke="none" /><text fill="#e1ed5e" style="font-size:6.75px; font-family:Arial;" text-anchor="middle"><textPath startOffset="22.145653131862474" xlink:href="#id27">March</textPath></text><path d="M 118.00360718960297 89.18935116829356 l 22.361506881197716 -13.427442383880779 a47.08319763699019,47.08319763699019 0 0,0 0.4101311742362621,0.6964923970921232 l -22.588711765563747 13.0415988184951" fill="#ff8d0c" stroke="none" /><path d="M 118.36410011445183 89.81374322990088 l 22.04290079629567 -12.226825494824546 a46.20683909569432,46.20683909569432 0 0,0 0.37879629666187786,0.6969425211418051 l -22.24954244257289 11.846628140208137" fill="#ff7c0b" stroke="none" /><path d="M 119.0197475246899 91.09779779509293 l 17.955212104479664 -8.403945876704224 a40.82462983299882,40.82462983299882 0 0,0 0.29163469959484534,0.637274450298291 l -18.09683126892956 8.09448244419125" fill="#ff1202" stroke="none" /><line stroke="#e1ed5e" stroke-width="0.3" x1="184.99686870605535" x2="189.99668451229388" y1="99.2704041080226" y2="99.22748670261217" /><path d="M 185.99683186730306 99.26182062694052 a86.0,86.0 0 0,1 -10.086455211305974,41.156179273409016" fill="none" id="id28" stroke="none" /><text fill="#e1ed5e" style="font-size:6.75px; font-family:Arial;" text-anchor="middle"><textPath startOffset="21.40746469413373" xlink:href="#id28">April</textPath></text><line stroke="#e1ed5e" stroke-width="0.3" x1="174.33088141563837" x2="178.70328620479359" y1="141.23008692659167" y2="143.65538615756765" /><path d="M 175.20536237346943 141.71514677278685 a86.0,86.0 0 0,1 -30.301960400862466,31.631185727798858" fill="none" id="id29" stroke="none" /><text fill="#e1ed5e" style="font-size:6.75px; font-family:Arial;" text-anchor="middle"><textPath startOffset="22.145653131862474" xlink:href="#id29">May</textPath></text><line stroke="#e1ed5e" stroke-width="0.3" x1="143.1302829299769" x2="145.66735839644613" y1="173.24464959558577" y2="177.55315839532614" /><path d="M 143.63769802327073 174.10635135553383 a86.0,86.0 0 0,1 -40.68552437913181,11.842963189579606" fill="none" id="id30" stroke="none" /><text fill="#e1ed5e" style="font-size:6.75px; font-family:Arial;" text-anchor="middle"><textPath startOffset="21.407464694133747" xlink:href="#id30">June</textPath></text><line stroke="#e1ed5e" stroke-width="0.3" x1="101.45913802915013" x2="101.54496967792366" y1="184.9874750549273" y2="189.98673829345242" /><path d="M 101.47630435890484 185.9873277026323 a86.0,86.0 0 0,1 -42.54439059252881,-10.42667462771756" fill="none" id="id31" stroke="none" /><text fill="#e1ed5e" style="font-size:6.75px; font-family:Arial;" text-anchor="middle"><textPath startOffset="22.145653131862474" xlink:href="#id31">July</textPath></text><line stroke="#e1ed5e" stroke-width="0.3" x1="58.13341422392154" x2="55.67067388415222" y1="173.97424548756322" y2="178.32567169271397" /><path d="M 57.64086615596768 174.84453072859336 a86.0,86.0 0 0,1 -31.369924170532247,-30.572349798747897" fill="none" id="id32" stroke="none" /><text fill="#e1ed5e" style="font-size:6.75px; font-family:Arial;" text-anchor="middle"><textPath startOffset="22.145653131862474" xlink:href="#id32">August</textPath></text><line stroke="#e1ed5e" stroke-width="0.3" x1="26.387840678322732" x2="22.057713659400548" y1="142.50000000000003" y2="145.00000000000006" /><path d="M 25.521815274538298 143.00000000000003 a86.0,86.0 0 0,1 -11.493303480769221,-40.785679425670985" fill="none" id="id33" stroke="none" /><text fill="#e1ed5e" style="font-size:6.75px; font-family:Arial;" text-anchor="middle"><textPath startOffset="21.40746469413373" xlink:href="#id33">September</textPath></text><line stroke="#e1ed5e" stroke-width="0.3" x1="15.003131293944662" x2="10.003315487706104" y1="100.72959589197737" y2="100.7725132973878" /><path d="M 14.003168132696942 100.73817937305945 a86.0,86.0 0 0,1 10.791469493833604,-42.45332614584628" fill="none" id="id34" stroke="none" /><text fill="#e1ed5e" style="font-size:6.75px; font-family:Arial;" text-anchor="middle"><textPath startOffset="22.145653131862435" xlink:href="#id34">October</textPath></text><line stroke="#e1ed5e" stroke-width="0.3" x1="26.387840678322718" x2="22.05771365940052" y1="57.49999999999999" y2="54.99999999999999" /><path d="M 25.521815274538284 56.99999999999999 a86.0,86.0 0 0,1 29.574782752854787,-30.34633250058573" fill="none" id="id35" stroke="none" /><text fill="#e1ed5e" style="font-size:6.75px; font-family:Arial;" text-anchor="middle"><textPath startOffset="21.40746469413373" xlink:href="#id35">November</textPath></text><line stroke="#e1ed5e" stroke-width="0.3" x1="56.869717070023135" x2="54.33264160355391" y1="26.7553504044142" y2="22.446841604673864" /><path d="M 56.362301976729285 25.89364864446614 a86.0,86.0 0 0,1 42.16139366436587,-11.88097634709845" fill="none" id="id36" stroke="none" /><text fill="#e1ed5e" style="font-size:6.75px; font-family:Arial;" text-anchor="middle"><textPath startOffset="22.145653131862474" xlink:href="#id36">December</textPath></text></svg>