<?xml version="1.0" encoding="utf-8" ?>
<svg baseProfile="full" height="200mm" version="1.1" viewBox="0,0,200,200" width="200mm" xmlns="http://www.w3.org/2000/svg" xmlns:ev="http://www.w3.org/2001/xml-events" xmlns:xlink="http://www.w3.org/1999/xlink"><defs /><rect fill="#1a1a1a" height="200" width="200" x="0" y="0" /><text alignment-baseline="middle" fill="#e1ed5e" style="dominant-baseline: central; font-size:9.0px; font-family:Arial;" text-anchor="middle" x="100.0" y="100.0">2024</text><line stroke="#e1ed5e" stroke-width="0.3" x1="100.0" x2="100.0" y1="15.0" y2="10.0" /><path d="M 100.0 14.0 a86.0,86.0 0 0,1 42.35913384403234,11.155469271406648" fill="none" id="id25" stroke="none" /><text fill="#e1ed5e" style="font-size:6.75px; font-family:Arial;" text-anchor="middle"><textPath startOffset="22.145653131862478" xlink:href="#id25">January</textPath></text><path d="M 101.08105385017728 79.02784411241856 l 0.988527668054841 -19.177172672974443 a40.20263363915449,40.20263363915449 0 0,0 0.6889116559142477,0.0414432145012481 l -1.3175836761015511 19.157377480648503" fill="#ffc512" stroke="none" /><path d="M 103.23170211078529 79.25015418208739 l 3.2148731420777086 -20.641791766522314 a41.89064327999789,41.89064327999789 0 0,0 0.709592582203522,0.11676318936994363 l -3.568743227334301 20.5835625786567" fill="#ffdc14" stroke="none" /><path d="M 104.29559338865022 79.4440306129975 l 8.98026628015426 -42.97382504352612 a64.90210497611781,64.90210497611781 0 0,0 1.0886171720532862,0.23725904586042285 l -9.71664586882668 42.81333453953198" fill="#33ff55" stroke="none" /><path d="M 107.74402155503746 80.48000691201159 l 8.316974109943828 -20.964207806662884 a43.55371515530027,43.55371515530027 0 0,0 0.6925985178426124,0.2816737876859679 l -8.675627088976881 20.81834676239762" fill="#fff316" stroke="none" /><path d="M 108.4095320186766 80.7573450057729 l 5.283041067792413 -12.088631848013428 a34.19263214376819,34.19263214376819 0 0,0 0.5358255695048488,0.239667961813423 l -5.489780040152893 11.996160135290152" fill="#ff6f0a" stroke="none" /><path d="M 108.73861861582097 80.90454125486305 l 9.624756344445155 -21.0318296045789 a44.12950045301408,44.12950045301408 0 0,0 0.6861323785296013,0.32114459800664086 l -9.98437743684626 20.863508775001723" fill="#fffa17" stroke="none" /><path d="M 109.3889696526874 81.21577127319529 l 11.335841054944542 -22.679275688768826 a46.354503311840816,46.354503311840816 0 0,0 0.7087223411628496,0.3618786772443613 l -11.72349061782097 22.48133905985163" fill="#e7ff1a" stroke="none" /><path d="M 109.71004243097381 81.37971332152246 l 7.5170554459782295 -14.414944978575962 a37.257206442476004,37.257206442476004 0 0,0 0.5645552277402339,0.3005938600720116 l -7.763399489505023 14.283780650781377" fill="#ff9c0e" stroke="none" /><path d="M 110.02825361518725 81.54914285379988 l 12.404872888960597 -22.823568925735522 a46.976839105231214,46.976839105231214 0 0,0 0.7052248357133296,0.3911763284046647 l -12.794841912830027 22.60725968189771" fill="#dfff1b" stroke="none" /><line stroke="#e1ed5e" stroke-width="0.3" x1="143.13028292997686" x2="145.6673583964461" y1="26.7553504044142" y2="22.446841604673864" /><path d="M 143.63769802327073 25.89364864446614 a86.0,86.0 0 0,1 29.32050498858742,28.57503671076993" fill="none" id="id26" stroke="none" /><text fill="#e1ed5e" style="font-size:6.75px; font-family:Arial;" text-anchor="middle"><textPath startOffset="20.669276256404974" xlink:href="#id26">February</textPath></text><path d="M 115.8921839302757 86.27271002978787 l 12.197712136697723 -10.536093227227106 a37.11810912801386,37.11810912801386 0 0,0 0.4123741262810437,0.4857756838590811 l -12.376780826485879 10.325150760918472" fill="#ff9a0e" stroke="none" /><path d="M 117.01052211995028 87.68569379921539 l 14.110071210200225 -10.214603418521575 a38.41930631668764,38.41930631668764 0 0,0 0.3821530006908837,0.5375460538031539 l -14.28333930942107 9.970880138008917" fill="#ffac0f" stroke="none" /><path d="M 117.21940702142032 87.97951657250589 l 15.0930905469545 -10.536149390257568 a39.40684183211211,39.40684183211211 0 0,0 0.38245327643236326,0.5580107600694622 l -15.271733560202188 10.275503895118058" fill="#ffba11" stroke="none" /><path d="M 117.42321728460499 88.27688183743584 l 14.581137630428778 -9.810840133249402 a38.57447463560955,38.57447463560955 0 0,0 0.36494311388419115,0.5525703882329028 l -14.747405183233694 9.559089866677441" fill="#ffae10" stroke="none" /><line stroke="#e1ed5e" stroke-width="0.3" x1="172.87174338648825" x2="177.1583165268699" y1="56.24261187166439" y2="53.66864786411523" /><path d="M 173.72905801456457 55.72781907015455 a86.0,86.0 0 0,1 12.242430191666344,42.057860355516425" fill="none" id="id27" stroke="none" /><text fill="#e1ed5e" style="font-size:6.75px; font-family:Arial;" text-anchor="middle"><textPath startOffset="22.145653131862474" xlink:href="#id27">March</textPath></text><path d="M 118.00360718960297 89.18935116829356 l 15.58281305591306 -9.357031509490595 a39.176306043999546,39.176306043999546 0 0,0 0.34125601502140923,0.5795273191972639 l -15.741142781064239 9.088153021999775" fill="#ffb711" stroke="none" /><path d="M 118.36410011445183 89.81374322990088 l 15.36078959900196 -8.520371053943823 a38.5656078745283,38.5656078745283 0 0,0 0.3161547019291076,0.5816890423033626 l -15.504789650546408 8.255427178165856" fill="#ffae10" stroke="none" /><path d="M 119.0197475246899 91.09779779509293 l 12.512247725068688 -5.856363715756847 a34.81496793715859,34.81496793715859 0 0,0 0.2487040974355749,0.5434633368401474 l -12.610936287359316 5.640711396702015" fill="#ff780b" stroke="none" /><path d="M 119.31412917781788 91.75594674310238 l 19.856772568597062 -8.475675452850663 a42.59000906028166,42.59000906028166 0 0,0 0.2812444541722899,0.6748843065649128 l -19.999342867305838 8.133558636844471" fill="#ffe615" stroke="none" /><path d="M 119.58574465831526 92.42381321644754 l 17.048348149359075 -6.594667304402884 a39.2793821415691,39.2793821415691 0 0,0 0.2378634365302198,0.6309610252726854 l -17.159042269703736 6.3010379989360406" fill="#ffb811" stroke="none" /><path d="M 119.71291397450082 92.76114493625339 l 11.894022812020804 -4.367649925956454 a33.67060158510947,33.67060158510947 0 0,0 0.19458373728033435,0.5442853445604743 l -11.967246719345082 4.162829625015063" fill="#ff6709" stroke="none" /><path d="M 119.83427380445688 93.10060997987247 l 19.959717739481512 -6.943025932484447 a42.13281669202959,42.13281669202959 0 0,0 0.2317597408642201,0.6851564928578666 l -20.0759629019181 6.599367765152419" fill="#ffe015" stroke="none" /><path d="M 119.94978838288452 93.4421083053983 l 16.2359756620117 -5.337087687557052 a38.09068198411372,38.09068198411372 0 0,0 0.19886108312221035,0.6229295105313453 l -16.325201460911167 5.05758914333432" fill="#ffa80f" stroke="none" /><path d="M 120.16314734710363 94.1308016681162 l 7.987183787216366 -2.324952793994908 a29.31868441191735,29.31868441191735 0 0,0 0.136515484389844,0.48444529392969365 l -8.025917763680791 2.1874995761622014" fill="#ff2503" stroke="none" /><path d="M 120.43855184770803 95.1765574152323 l 12.075111461691392 -2.8496934261352904 a33.40681544294222,33.40681544294222 0 0,0 0.12692862010925737,0.559270920103524 l -12.122250943358315 2.6419881720927405" fill="#ff6409" stroke="none" /><path d="M 120.592083275326 95.88100663000786 l 18.114505141041114 -3.623408354512668 a39.473342540221495,39.473342540221495 0 0,0 0.12720511646253577,0.665590921097799 l -18.174036549785807 3.3119148683815545" fill="#ffbb11" stroke="none" /><path d="M 120.98066250479742 99.09900007780936 l 29.304790137041316 -1.2584737792359935 a50.33179982935003,50.33179982935003 0 0,0 0.029660560804771065,0.8635348653203577 l -29.322075384842936 0.7552326493515157" fill="#b4ff20" stroke="none" /><path d="M 120.99303781780057 99.45929381324524 l 30.616193318281944 -0.7885645367645624 a51.626346947212866,51.626346947212866 0 0,0 0.015213960923515528,0.8861369511606597 l -30.625218710804127 0.26288066963483625" fill="#a5ff21" stroke="none" /><line stroke="#e1ed5e" stroke-width="0.3" x1="184.99686870605535" x2="189.99668451229388" y1="99.2704041080226" y2="99.22748670261217" /><path d="M 185.99683186730306 99.26182062694052 a86.0,86.0 0 0,1 -10.086455211305974,41.156179273409016" fill="none" id="id28" stroke="none" /><text fill="#e1ed5e" style="font-size:6.75px; font-family:Arial;" text-anchor="middle"><textPath startOffset="21.40746469413373" xlink:href="#id28">April</textPath></text><path d="M 120.99922638620191 99.81974689727618 l 12.03230568836859 -0.10328287306217679 a33.03274895982689,33.03274895982689 0 0,0 0.0,0.5670719515720059 l -12.03230568836859 -0.10328287306217533" fill="#ff5e08" stroke="none" /><path d="M 120.82617615685814 102.69636545807757 l 26.53563672796059 3.4355694363895948 a47.75711408038141,47.75711408038141 0 0,0 -0.11224168825548583,0.8121249430822165 l -26.472750523149895 -3.8905826876718965" fill="#d5ff1c" stroke="none" /><path d="M 120.7213421655516 103.40968896794604 l 28.207659076818338 4.64155956681728 a49.58699189852484,49.58699189852484 0 0,0 -0.1454201879086548,0.8387449999460183 l -28.12382407141745 -5.125097599683887" fill="#beff1f" stroke="none" /><path d="M 120.51834098615036 104.47187691870673 l 11.622481530247736 2.533065754599366 a32.89531416306748,32.89531416306748 0 0,0 -0.12498517980291073,0.5507077635249575 l -11.577285488887162 -2.73220785206334" fill="#ff5c08" stroke="none" /><path d="M 120.43855184770803 104.8234425847677 l 18.06412511501554 4.263084341081077 a39.560347633331276,39.560347633331276 0 0,0 -0.16165577534720751,0.6596107285852237 l -17.988281813152035 -4.572550894274401" fill="#ffbc11" stroke="none" /><path d="M 120.16314734710363 105.8691983318838 l 26.88591097090505 7.826096844165522 a49.001785667162196,49.001785667162196 0 0,0 -0.24203073979959325,0.8056416165608647 l -26.747603911101827 -8.28647606431711" fill="#c5ff1e" stroke="none" /><path d="M 119.83427380445688 106.89939002012753 l 10.238423420097496 3.5614551388610773 a31.84016959439846,31.84016959439846 0 0,0 -0.18400559846420028,0.5146964076286348 l -10.175777651589353 -3.7366865028706338" fill="#ff4c07" stroke="none" /><path d="M 119.71291397450082 107.23885506374661 l 7.56225549415441 2.7769649656065845 a29.056006614885252,29.056006614885252 0 0,0 -0.17595392820466893,0.46673869914710175 l -7.513470882135301 -2.9063719449478453" fill="#ff2103" stroke="none" /><path d="M 119.4528033332814 107.91128576633889 l 25.934618470678366 10.547383554301177 a48.99735228662158,48.99735228662158 0 0,0 -0.3235555451569308,0.7764155221162252 l -25.74973708098495 -10.99103158585868" fill="#c5ff1e" stroke="none" /><path d="M 119.31412917781788 108.2440532568976 l 10.240567633877982 4.371089381110282 a32.13443522778252,32.13443522778252 0 0,0 -0.22091065082915362,0.5054868010508504 l -10.164023101031862 -4.546238251936977" fill="#ff5007" stroke="none" /><path d="M 119.0197475246899 108.90220220490707 l 5.3770191294741405 2.516716454206068 a26.936850716465962,26.936850716465962 0 0,0 -0.19961584270092902,0.41712033746349475 l -5.333024028813299 -2.608649293734666" fill="#ff0000" stroke="none" /><line stroke="#e1ed5e" stroke-width="0.3" x1="174.33088141563837" x2="178.70328620479359" y1="141.23008692659167" y2="143.65538615756765" /><path d="M 175.20536237346943 141.71514677278685 a86.0,86.0 0 0,1 -30.301960400862466,31.631185727798858" fill="none" id="id29" stroke="none" /><text fill="#e1ed5e" style="font-size:6.75px; font-family:Arial;" text-anchor="middle"><textPath startOffset="22.145653131862474" xlink:href="#id29">May</textPath></text><path d="M 118.36410011445183 110.18625677009912 l 28.438565669881438 15.774392988566277 a53.52050878319538,53.52050878319538 0 0,0 -0.4525455546178938,0.7996046329322852 l -28.163586750242168 -16.260254391597684" fill="#8eff24" stroke="none" /><path d="M 117.81537515405839 111.11811171558189 l 47.78337394091075 29.820359382184982 a77.32499142351978,77.32499142351978 0 0,0 -0.7124294207443271,1.120057380791604 l -47.26442682854053 -30.636230437655257" fill="#44ffe7" stroke="none" /><path d="M 117.62189284568427 111.42229804090321 l 35.03886373872836 22.71176814790186 a62.75579462188718,62.75579462188718 0 0,0 -0.5937163194037657,0.8989621796707143 l -34.64382298040387 -23.309910205911635" fill="#30ff39" stroke="none" /><path d="M 117.423217284605 111.72311816256416 l 25.38744664338775 17.08180710741648 a51.59919249140154,51.59919249140154 0 0,0 -0.5007830953233092,0.7306575021608291 l -25.090473811249122 -17.515099344647354" fill="#a5ff21" stroke="none" /><path d="M 117.21940702142032 112.02048342749411 l 10.238672774468725 7.14738877197903 a33.48661629267349,33.48661629267349 0 0,0 -0.3330880259457198,0.4685300222489539 l -10.114469649993046 -7.322096020937488" fill="#ff6509" stroke="none" /><path d="M 117.01052211995028 112.31430620078461 l 22.889531418551186 16.57025555670262 a49.25781339338336,49.25781339338336 0 0,0 -0.501721276407684,0.6806812698081354 l -22.601708122559675 -16.960743135779634" fill="#c2ff1e" stroke="none" /><path d="M 116.79662413953412 112.60449989151573 l 10.84275625294767 8.136606432261404 a34.55616934809954,34.55616934809954 0 0,0 -0.3601213967638752,0.4714104684160545 l -10.70148287882949 -8.321537813918336" fill="#ff750a" stroke="none" /><path d="M 116.57777611688842 112.89097897827486 l 11.150768420345225 8.670904968480274 a35.12530457500242,35.12530457500242 0 0,0 -0.3742242746365512,0.47282014606073947 l -11.000277715067112 -8.861045058455698" fill="#ff7d0b" stroke="none" /><path d="M 116.1254893667686 113.45245675266167 l 39.71038106123463 33.12781222992572 a72.7142756612686,72.7142756612686 0 0,0 -0.8078398010674415,0.951633254373159 l -39.13584669666007 -33.80461226674844" fill="#3effb4" stroke="none" /><path d="M 115.6541949942343 113.99807769240083 l 20.876895905903755 18.66824905238762 a49.00621904770282,49.00621904770282 0 0,0 -0.5661438768580556,0.6222912944767733 l -20.55335432820382 -19.023877922422063" fill="#c5ff1e" stroke="none" /><path d="M 115.16444852881244 114.52719865689866 l 22.499563367010477 21.554072744881914 a52.15779843952042,52.15779843952042 0 0,0 -0.6249328814428178,0.6412361899423311 l -22.126243684416853 -21.937131626891983" fill="#9eff22" stroke="none" /><path d="M 114.65682725009322 115.03919595460226 l 21.39172465683274 21.94979400599528 a51.64962219505115,51.64962219505115 0 0,0 -0.6402770358111176,0.6133709166545444 l -21.01177513515631 -22.313777052955405" fill="#a4ff21" stroke="none" /><path d="M 114.39649973595853 115.28858382429668 l 27.27347940003501 28.963489989596535 a60.78349445387613,60.78349445387613 0 0,0 -0.7657858584761053,0.7087999580864377 l -26.772263770244937 -29.427407693815354" fill="#3cff2e" stroke="none" /><path d="M 114.13192950727249 115.5334660781643 l 5.234443915908537 5.753570803192583 a28.77836615852854,28.77836615852854 0 0,0 -0.36827397417519886,0.32931285859747955 l -5.134904914909961 -5.84257919167345" fill="#ff1d02" stroke="none" /><path d="M 113.86319453409587 115.77377054828091 l 7.444075606197485 8.469991549741477 a32.27630340508256,32.27630340508256 0 0,0 -0.41931608982412094,0.36219525141698655 l -7.297580036610508 -8.596530933623182" fill="#ff5307" stroke="none" /><path d="M 113.59037401385872 116.0094264158162 l 19.90624041340997 23.449501153467395 a51.75934836343165,51.75934836343165 0 0,0 -0.6823007654311141,0.5691995653902676 l -19.500765313816963 -23.787762902769533" fill="#a3ff21" stroke="none" /><path d="M 112.7482090630111 116.68781488649013 l 31.244174639605564 40.89962755472367 a72.46822304126385,72.46822304126385 0 0,0 -0.9950474053760174,0.746702123529381 l -30.53747424531878 -41.42994870551707" fill="#3dffb1" stroke="none" /><path d="M 112.45986205192187 116.90419585922612 l 8.865909248560158 12.028308642844745 a35.94270911218037,35.94270911218037 0 0,0 -0.49980731425529945,0.3618219514798478 l -8.658120923930891 -12.17873136569767" fill="#ff890c" stroke="none" /><path d="M 111.8722381534696 117.32195027204791 l 9.495451227237755 13.854147115537808 a37.79586217816208,37.79586217816208 0 0,0 -0.5383277462886837,0.3622109325070117 l -9.256227192852068 -14.01510772210194" fill="#ffa30f" stroke="none" /><path d="M 111.5731344415666 117.5232005979908 l 6.72991363407972 10.189947002911389 a33.211746699154666,33.211746699154666 0 0,0 -0.4784300263969105,0.31011256288288547 l -6.5539979754258 -10.303973407498168" fill="#ff6108" stroke="none" /><path d="M 111.27062007382361 117.71928675628689 l 9.891076269321129 15.550414759473547 a39.42956290738281,39.42956290738281 0 0,0 -0.5742368915819126,0.3583662907239852 l -9.622675248949502 -15.71791684703908" fill="#ffba11" stroke="none" /><line stroke="#e1ed5e" stroke-width="0.3" x1="143.1302829299769" x2="145.66735839644613" y1="173.24464959558577" y2="177.55315839532614" /><path d="M 143.63769802327073 174.10635135553383 a86.0,86.0 0 0,1 -40.68552437913181,11.842963189579606" fill="none" id="id30" stroke="none" /><text fill="#e1ed5e" style="font-size:6.75px; font-family:Arial;" text-anchor="middle"><textPath startOffset="21.407464694133747" xlink:href="#id30">June</textPath></text><path d="M 110.34350942703117 118.27599006163325 l 13.960639668770241 24.667112612060585 a49.34371014135799,49.34371014135799 0 0,0 -0.7407567333335319,0.410885273053871 l -13.535138747280614 -24.9031308005476" fill="#c1ff1e" stroke="none" /><path d="M 108.4095320186766 119.2426549942271 l 4.049606544781819 9.266292277684162 a31.112541013168197,31.112541013168197 0 0,0 -0.49122987248990435,0.20967682223213305 l -3.8899415971214837 -9.334443749575698" fill="#ff4106" stroke="none" /><path d="M 108.07796709384702 119.3841803445677 l 13.379028634290801 32.104798257938945 a55.780978686347126,55.780978686347126 0 0,0 -0.8870385229874631,0.3607508450516611 l -12.825935650112896 -32.3297363595699" fill="#74ff27" stroke="none" /><path d="M 107.74402155503746 119.51999308798841 l 11.133440206146245 28.063542220919796 a51.19132148166393,51.19132148166393 0 0,0 -0.8196162953212499,0.31704519039365414 l -10.650051648331464 -28.25052729945149" fill="#aaff21" stroke="none" /><path d="M 107.06938296918513 119.77432235084164 l 8.987667372600079 25.14010523727816 a47.69837178821811,47.69837178821811 0 0,0 -0.7733819179399447,0.2690223770725085 l -8.554779682615113 -25.29068604691926" fill="#d5ff1c" stroke="none" /><path d="M 106.72888874123015 119.89276391827305 l 5.172075218787604 15.290321366806095 a37.14138437585215,37.14138437585215 0 0,0 -0.6057180781435744,0.19911156337556543 l -4.908834402996295 -15.376853851583679" fill="#ff9a0e" stroke="none" /><path d="M 106.0420521117495 120.11202640906438 l 18.126156335248506 60.33607922719317 a84.0,84.0 0 0,0 -1.3845599504735728,0.4030252227899269 l -17.08773637239333 -60.63834814428561" fill="#4dd2ff" stroke="none" /><path d="M 105.69591212413111 120.21278271476187 l 3.0138736838652975 10.695174464441216 a32.11171415251181,32.11171415251181 0 0,0 -0.5318595919101039,0.1449606968496514 l -2.8298326910204983 -10.745335655435008" fill="#ff5007" stroke="none" /><path d="M 105.3480935250658 120.30758222061773 l 5.676883455369236 21.556051139804392 a43.29103735826817,43.29103735826817 0 0,0 -0.7202694906552608,0.18308968793263108 l -5.306008671488578 -21.650326059572294" fill="#ffef16" stroke="none" /><path d="M 104.9986988182912 120.39639698878246 l 13.204474294567376 53.878761159736634 a76.473228187152,76.473228187152 0 0,0 -1.2777141366945137,0.30153705722468477 l -12.277628004132984 -54.09749436060754" fill="#43ffde" stroke="none" /><line stroke="#e1ed5e" stroke-width="0.3" x1="101.45913802915013" x2="101.54496967792366" y1="184.9874750549273" y2="189.98673829345242" /><path d="M 101.47630435890484 185.9873277026323 a86.0,86.0 0 0,1 -42.54439059252881,-10.42667462771756" fill="none" id="id31" stroke="none" /><text fill="#e1ed5e" style="font-size:6.75px; font-family:Arial;" text-anchor="middle"><textPath startOffset="22.145653131862474" xlink:href="#id31">July</textPath></text><line stroke="#e1ed5e" stroke-width="0.3" x1="58.13341422392154" x2="55.67067388415222" y1="173.97424548756322" y2="178.32567169271397" /><path d="M 57.64086615596768 174.84453072859336 a86.0,86.0 0 0,1 -31.369924170532247,-30.572349798747897" fill="none" id="id32" stroke="none" /><text fill="#e1ed5e" style="font-size:6.75px; font-family:Arial;" text-anchor="middle"><textPath startOffset="22.145653131862474" xlink:href="#id32">August</textPath></text><line stroke="#e1ed5e" stroke-width="0.3" x1="26.387840678322732" x2="22.057713659400548" y1="142.50000000000003" y2="145.00000000000006" /><path d="M 25.521815274538298 143.00000000000003 a86.0,86.0 0 0,1 -11.493303480769221,-40.785679425670985" fill="none" id="id33" stroke="none" /><text fill="#e1ed5e" style="font-size:6.75px; font-family:Arial;" text-anchor="middle"><textPath startOffset="21.40746469413373" xlink:href="#id33">September</textPath></text><line stroke="#e1ed5e" stroke-width="0.3" x1="15.003131293944662" x2="10.003315487706104" y1="100.72959589197737" y2="100.7725132973878" /><path d="M 14.003168132696942 100.73817937305945 a86.0,86.0 0 0,1 10.791469493833604,-42.45332614584628" fill="none" id="id34" stroke="none" /><text fill="#e1ed5e" style="font-size:6.75px; font-family:Arial;" text-anchor="middle"><textPath startOffset="22.145653131862435" xlink:href="#id34">October</textPath></text><line stroke="#e1ed5e" stroke-width="0.3" x1="26.387840678322718" x2="22.05771365940052" y1="57.49999999999999" y2="54.99999999999999" /><path d="M 25.521815274538284 56.99999999999999 a86.0,86.0 0 0,1 29.574782752854787,-30.34633250058573" fill="none" id="id35" stroke="none" /><text fill="#e1ed5e" style="font-size:6.75px; font-family:Arial;" text-anchor="middle"><textPath startOffset="21.40746469413373" xlink:href="#id35">November</textPath></text><line stroke="#e1ed5e" stroke-width="0.3" x1="56.869717070023135" x2="54.33264160355391" y1="26.7553504044142" y2="22.446841604673864" /><path d="M 56.362301976729285 25.89364864446614 a86.0,86.0 0 0,1 42.16139366436587,-11.88097634709845" fill="none" id="id36" stroke="none" /><text fill="#e1ed5e" style="font-size:6.75px; font-family:Arial;" text-anchor="middle"><textPath startOffset="22.145653131862474" xlink:href="#id36">December</textPath></text></svg>