<?xml version="1.0" encoding="utf-8" ?>
<svg baseProfile="full" height="200mm" version="1.1" viewBox="0,0,200,200" width="200mm" xmlns="http://www.w3.org/2000/svg" xmlns:ev="http://www.w3.org/2001/xml-events" xmlns:xlink="http://www.w3.org/1999/xlink"><defs /><rect fill="#1a1a1a" height="200" width="200" x="0" y="0" /><text alignment-baseline="middle" fill="#e1ed5e" style="dominant-baseline: central; font-size:9.0px; font-family:Arial;" text-anchor="middle" x="100.0" y="100.0">2024</text><line stroke="#e1ed5e" stroke-width="0.3" x1="100.0" x2="100.0" y1="15.0" y2="10.0" /><path d="M 100.0 14.0 a86.0,86.0 0 0,1 42.35913384403234,11.155469271406648" fill="none" id="id25" stroke="none" /><text fill="#e1ed5e" style="font-size:6.75px; font-family:Arial;" text-anchor="middle"><textPath startOffset="22.145653131862478" xlink:href="#id25">January</textPath></text><path d="M 101.08105385017728 79.02784411241856 l 1.1056769209102748 -21.44983688169537 a42.478315197071964,42.478315197071964 0 0,0 0.7279076969316096,0.04378911949314036 l -1.4737289699743468 21.427695784377537" fill="#ffdd14" stroke="none" /><path d="M 103.23170211078529 79.25015418208739 l 3.5958639820817027 -23.08802626373557 a44.36636887778193,44.36636887778193 0 0,0 0.7515293103653872,0.12366386203018188 l -3.9916707955001605 23.02289640320972" fill="#fff717" stroke="none" /><path d="M 104.29559338865022 79.4440306129975 l 10.04450708914753 -48.06660257406855 a70.10489187115056,70.10489187115056 0 0,0 1.1758846521843325,0.2562785869829305 l -10.868154157950995 47.8870925289519" fill="#3aff93" stroke="none" /><path d="M 107.74402155503746 80.48000691201159 l 9.302608942922374 -23.448651450095994 a46.226529447647536,46.226529447647536 0 0,0 0.7351020611281268,0.2989596087191944 l -9.703765465240942 23.285504584797504" fill="#eeff19" stroke="none" /><path d="M 108.4095320186766 80.7573450057729 l 5.9091280594841 -13.521241409489669 a35.756075483578975,35.756075483578975 0 0,0 0.5603259622918182,0.2506266758746192 l -6.140367424631551 13.417810982705197" fill="#ff7d0b" stroke="none" /><path d="M 108.73861861582097 80.90454125486305 l 10.765374913964841 -23.524287027857127 a46.87055038469863,46.87055038469863 0 0,0 0.7287506517932559,0.34109210181680105 l -11.167614279629602 23.33601869446979" fill="#e6ff1a" stroke="none" /><path d="M 109.3889696526874 81.21577127319529 l 12.679238263732666 -25.366970012458992 a49.359235718924026,49.359235718924026 0 0,0 0.754662235541395,0.38533591464875355 l -13.112827720987639 25.145576146137405" fill="#c6ff1e" stroke="none" /><path d="M 109.71004243097381 81.37971332152246 l 8.407892857643235 -16.123243176759196 a39.183828882898126,39.183828882898126 0 0,0 0.5937491709925631,0.31613799049848373 l -8.683430844422357 15.97653471853814" fill="#ffaf10" stroke="none" /><path d="M 110.02825361518725 81.54914285379988 l 13.874959804755184 -25.528363271457437 a50.05532379621795,50.05532379621795 0 0,0 0.7514396066898077,0.41681088282354767 l -14.311143599601092 25.28641947320074" fill="#bdff1f" stroke="none" /><line stroke="#e1ed5e" stroke-width="0.3" x1="143.13028292997686" x2="145.6673583964461" y1="26.7553504044142" y2="22.446841604673864" /><path d="M 143.63769802327073 25.89364864446614 a86.0,86.0 0 0,1 29.32050498858742,28.57503671076993" fill="none" id="id26" stroke="none" /><text fill="#e1ed5e" style="font-size:6.75px; font-family:Arial;" text-anchor="middle"><textPath startOffset="20.669276256404974" xlink:href="#id26">February</textPath></text><path d="M 115.8921839302757 86.27271002978787 l 13.643248675064518 -11.784713260304798 a39.028247309077315,39.028247309077315 0 0,0 0.4335953463807932,0.5107742277765872 l -13.843538584952423 11.54877225007866" fill="#ffad10" stroke="none" /><path d="M 117.01052211995028 87.68569379921539 l 15.78223917618599 -11.425124071978866 a40.48364784824574,40.48364784824574 0 0,0 0.40268679961564674,0.5664294135089231 l -15.976041074331599 11.152517431760439" fill="#ffc212" stroke="none" /><path d="M 117.21940702142032 87.97951657250589 l 16.881754979923137 -11.784776079150031 a41.58821503768276,41.58821503768276 0 0,0 0.4036240501052848,0.5888995515544914 l -17.08156876684375 11.493241792525492" fill="#ffd113" stroke="none" /><path d="M 117.42321728460499 88.27688183743584 l 16.309131124579732 -10.973511274013575 a40.65720498238848,40.65720498238848 0 0,0 0.38464728627576916,0.5824050166283776 l -16.495102849776224 10.691926379046139" fill="#ffc412" stroke="none" /><line stroke="#e1ed5e" stroke-width="0.3" x1="172.87174338648825" x2="177.1583165268699" y1="56.24261187166439" y2="53.66864786411523" /><path d="M 173.72905801456457 55.72781907015455 a86.0,86.0 0 0,1 12.242430191666344,42.057860355516425" fill="none" id="id27" stroke="none" /><text fill="#e1ed5e" style="font-size:6.75px; font-family:Arial;" text-anchor="middle"><textPath startOffset="22.145653131862474" xlink:href="#id27">March</textPath></text><path d="M 118.00360718960297 89.18935116829356 l 17.42951392820957 -10.465922323278884 a41.330358724099256,41.330358724099256 0 0,0 0.3600194847812031,0.6113917929356976 l -17.606607123120543 10.16517936204963" fill="#ffcd13" stroke="none" /><path d="M 118.36410011445183 89.81374322990088 l 17.181178732199957 -9.53011021985375 a40.64728743186603,40.64728743186603 0 0,0 0.3332199789008395,0.6130872298291462 l -17.342244060716137 9.23376815655" fill="#ffc412" stroke="none" /><path d="M 119.0197475246899 91.09779779509293 l 13.995059506572185 -6.55039450105655 a36.452163560872904,36.452163560872904 0 0,0 0.2603995630369306,0.5690200398745975 l -14.105443534464166 6.309185478967268" fill="#ff880c" stroke="none" /><path d="M 119.31412917781788 91.75594674310238 l 22.209975362716904 -9.48011779557274 a45.14861567523958,45.14861567523958 0 0,0 0.2981402928147974,0.7154281685928412 l -22.369441500068184 9.097457117538621" fill="#fdff18" stroke="none" /><path d="M 119.58574465831526 92.42381321644754 l 19.06872786421995 -7.376193580810651 a41.44565024892265,41.44565024892265 0 0,0 0.2509816667153025,0.6657586893781196 l -19.192540214749695 7.047766611238374" fill="#ffcf13" stroke="none" /><path d="M 119.71291397450082 92.76114493625339 l 13.303569485221681 -4.885254988611617 a35.17217969657018,35.17217969657018 0 0,0 0.20326141653141094,0.5685583578511633 l -13.385471071797035 4.656161674379537" fill="#ff750a" stroke="none" /><path d="M 119.83427380445688 93.10060997987247 l 22.32512044488751 -7.765835780737808 a44.63724197642614,44.63724197642614 0 0,0 0.2455358185275809,0.725883018621009 l -22.455141684987456 7.381451087642637" fill="#fffb17" stroke="none" /><path d="M 119.94978838288452 93.4421083053983 l 18.160082067577836 -5.969579680676009 a40.116078632007714,40.116078632007714 0 0,0 0.2094351277486698,0.6560525547191767 l -18.25988191110376 5.656958092265445" fill="#ffbc11" stroke="none" /><path d="M 120.16314734710363 94.1308016681162 l 8.93373555640723 -2.600480218813073 a30.304521930773923,30.304521930773923 0 0,0 0.1411058024452368,0.5007347133279005 l -8.977059850927049 2.4467375815821595" fill="#ff2a04" stroke="none" /><path d="M 120.43855184770803 95.1765574152323 l 13.506118738065119 -3.1874072469286907 a34.87713256852752,34.87713256852752 0 0,0 0.13251506471342211,0.5838858257976789 l -13.558844664336208 2.9550870871919854" fill="#ff700a" stroke="none" /><path d="M 120.592083275326 95.88100663000786 l 20.261233868720133 -4.052814222692926 a41.662596666601075,41.662596666601075 0 0,0 0.13426011378961644,0.7025056482711914 l -20.327820274791904 3.7044060093884204" fill="#ffd213" stroke="none" /><path d="M 120.98066250479742 99.09900007780936 l 32.77766639592739 -1.4076140286594132 a53.80787697514709,53.80787697514709 0 0,0 0.031709015219168274,0.9231733805357155 l -32.79700009814341 0.8447343835595778" fill="#8fff24" stroke="none" /><path d="M 120.99303781780057 99.45929381324524 l 34.24448242785421 -0.8820163937996196 a55.25583935142368,55.25583935142368 0 0,0 0.016283549590447942,0.9484351288065948 l -34.25457740904332 0.2940343490239584" fill="#7eff26" stroke="none" /><line stroke="#e1ed5e" stroke-width="0.3" x1="184.99686870605535" x2="189.99668451229388" y1="99.2704041080226" y2="99.22748670261217" /><path d="M 185.99683186730306 99.26182062694052 a86.0,86.0 0 0,1 -10.086455211305974,41.156179273409016" fill="none" id="id28" stroke="none" /><text fill="#e1ed5e" style="font-size:6.75px; font-family:Arial;" text-anchor="middle"><textPath startOffset="21.40746469413373" xlink:href="#id28">April</textPath></text><path d="M 120.99922638620191 99.81974689727618 l 13.458240102823812 -0.11552280503677213 a34.458735905861985,34.458735905861985 0 0,0 0.0,0.5915518155211964 l -13.458240102823812 -0.1155228050367705" fill="#ff6a09" stroke="none" /><path d="M 120.82617615685814 102.69636545807757 l 29.680343868875262 3.8427147350112985 a50.928068242192886,50.928068242192886 0 0,0 -0.11969425852393695,0.8660480290510011 l -29.610005093796115 -4.351651072262385" fill="#b2ff20" stroke="none" /><path d="M 120.7213421655516 103.40968896794604 l 31.55051562240441 5.191625339287363 a52.97480273126193,52.97480273126193 0 0,0 -0.1553553759294119,0.8960485242762715 l -31.456745428982764 -5.7324668964842225" fill="#99ff23" stroke="none" /><path d="M 120.51834098615036 104.47187691870673 l 12.999848165087394 2.8332564019374598 a34.30501387276412,34.30501387276412 0 0,0 -0.13034130957905862,0.5743078595909324 l -12.949295993950672 -3.055998595467409" fill="#ff6809" stroke="none" /><path d="M 120.43855184770803 104.8234425847677 l 20.20488336498467 4.768297459091286 a41.75991263110254,41.75991263110254 0 0,0 -0.1706438759684899,0.6962852463169145 l -20.120051962499883 -5.114438530016301" fill="#ffd313" stroke="none" /><path d="M 120.16314734710363 105.8691983318838 l 30.072128700932712 8.753558388941824 a52.32024439678073,52.32024439678073 0 0,0 -0.2584213470068368,0.8602006171976923 l -29.917431033922245 -9.268496609730239" fill="#a1ff22" stroke="none" /><path d="M 119.83427380445688 106.89939002012753 l 11.45176695396351 3.9835190042222766 a33.124825360593476,33.124825360593476 0 0,0 -0.1914296749088429,0.5354628707575344 l -11.381697109010723 -4.179516831360733" fill="#ff5607" stroke="none" /><path d="M 119.71291397450082 107.23885506374661 l 8.458449510438575 3.1060598219667193 a30.01071449654657,30.01071449654657 0 0,0 -0.18173533527456576,0.4820745682724829 l -8.40388349134957 -3.250802670433361" fill="#ff2603" stroke="none" /><path d="M 119.4528033332814 107.91128576633889 l 29.008099643854948 11.797341590779244 a52.31528562151952,52.31528562151952 0 0,0 -0.34546562149508386,0.8289917292445643 l -28.801308177823376 -12.293565829465086" fill="#a1ff22" stroke="none" /><path d="M 119.31412917781788 108.2440532568976 l 11.454165276000614 4.889102049555876 a33.453964068557035,33.453964068557035 0 0,0 -0.22998185351054745,0.5262434880095425 l -11.3685495404731 -5.085007607341264" fill="#ff5b08" stroke="none" /><path d="M 119.0197475246899 108.90220220490707 l 6.014243350872791 2.8149695651577993 a27.640419921682835,27.640419921682835 0 0,0 -0.20482965040532924,0.428015190295329 l -5.96503444250755 -2.917797257518232" fill="#ff0000" stroke="none" /><line stroke="#e1ed5e" stroke-width="0.3" x1="174.33088141563837" x2="178.70328620479359" y1="141.23008692659167" y2="143.65538615756765" /><path d="M 175.20536237346943 141.71514677278685 a86.0,86.0 0 0,1 -30.301960400862466,31.631185727798858" fill="none" id="id29" stroke="none" /><text fill="#e1ed5e" style="font-size:6.75px; font-family:Arial;" text-anchor="middle"><textPath startOffset="22.145653131862474" xlink:href="#id29">May</textPath></text><path d="M 118.36410011445183 110.18625677009912 l 31.808786684597607 17.643797773659262 a57.37447608178044,57.37447608178044 0 0,0 -0.4851329834049128,0.8571834971318298 l -31.501220336171315 -18.187238040890215" fill="#65ff29" stroke="none" /><path d="M 117.81537515405839 111.11811171558189 l 53.44612546217515 33.35433514674567 a84.0,84.0 0 0,0 -0.7739292334964403,1.2167453012853122 l -52.865678537052815 -34.26689412270965" fill="#4dd2ff" stroke="none" /><path d="M 117.62189284568427 111.42229804090321 l 39.191278325132885 25.40331311475951 a67.70422479781185,67.70422479781185 0 0,0 -0.6405321356734532,0.969847292411301 l -38.74942175053871 -26.07234028550987" fill="#37ff75" stroke="none" /><path d="M 117.423217284605 111.72311816256416 l 28.396083125998636 19.106152004097165 a55.225466852948706,55.225466852948706 0 0,0 -0.5359769968474418,0.7820064562670282 l -28.063916392335877 -19.590793195434237" fill="#7eff26" stroke="none" /><path d="M 117.21940702142032 112.02048342749411 l 11.452045859028393 7.994417420304334 a34.9663905232295,34.9663905232295 0 0,0 -0.3478071923432244,0.4892343731187528 l -11.313123568155207 -8.18982902013259" fill="#ff720a" stroke="none" /><path d="M 117.01052211995028 112.31430620078461 l 25.602142901819747 18.533977079956557 a52.60661366811627,52.60661366811627 0 0,0 -0.5358308771497073,0.7269574941531897 l -25.28021000508621 -18.970740883378625" fill="#9eff22" stroke="none" /><path d="M 116.79662413953412 112.60449989151573 l 12.12771856100917 9.10086610361059 a36.16269505499911,36.16269505499911 0 0,0 -0.3768635383964681,0.49332646924308515 l -11.969703045258397 -9.307713486094553" fill="#ff830c" stroke="none" /><path d="M 116.57777611688842 112.89097897827486 l 12.472232888586023 9.6984837317907 a36.799277829158385,36.799277829158385 0 0,0 -0.39205875135859286,0.4953534247926504 l -12.303907706585868 -9.911157100498032" fill="#ff8d0d" stroke="none" /><path d="M 116.1254893667686 113.45245675266167 l 44.41641167854874 37.053750346668046 a78.84287372832995,78.84287372832995 0 0,0 -0.8759271937876891,1.031840031794297 l -43.773789921253936 -37.8107571609119" fill="#46fff7" stroke="none" /><path d="M 115.6541949942343 113.99807769240083 l 23.35099231853103 20.88060132059448 a52.32520317204195,52.32520317204195 0 0,0 -0.6044864092120542,0.6644364541568625 l -22.989108208477095 -21.278375350309016" fill="#a1ff22" stroke="none" /><path d="M 115.16444852881244 114.52719865689866 l 25.165960194532087 24.10842058931119 a55.85027253586257,55.85027253586257 0 0,0 -0.6691745585403621,0.6866320481234374 l -24.74839883484092 -24.536875329502365" fill="#77ff27" stroke="none" /><path d="M 114.65682725009322 115.03919595460226 l 23.926832820034992 24.551038312280465 a55.281872921545094,55.281872921545094 0 0,0 -0.6853044073512168,0.6565061200296078 l -23.50185592681846 -24.958156562615653" fill="#7eff26" stroke="none" /><path d="M 114.39649973595853 115.28858382429668 l 30.505627409376217 32.395919168886664 a65.49818965347606,65.49818965347606 0 0,0 -0.8251843340543479,0.7637783003139083 l -29.9450133040079 -32.91481521533295" fill="#34ff59" stroke="none" /><path d="M 114.13192950727249 115.5334660781643 l 5.854771716210767 6.435419721160807 a29.700171195812587,29.700171195812587 0 0,0 -0.3800702242689419,0.33986113817059227 l -5.743436465118447 -6.534976389214786" fill="#ff2103" stroke="none" /><line stroke="#e1ed5e" stroke-width="0.3" x1="143.1302829299769" x2="145.66735839644613" y1="173.24464959558577" y2="177.55315839532614" /><path d="M 143.63769802327073 174.10635135553383 a86.0,86.0 0 0,1 -40.68552437913181,11.842963189579606" fill="none" id="id30" stroke="none" /><text fill="#e1ed5e" style="font-size:6.75px; font-family:Arial;" text-anchor="middle"><textPath startOffset="21.407464694133747" xlink:href="#id30">June</textPath></text><line stroke="#e1ed5e" stroke-width="0.3" x1="101.45913802915013" x2="101.54496967792366" y1="184.9874750549273" y2="189.98673829345242" /><path d="M 101.47630435890484 185.9873277026323 a86.0,86.0 0 0,1 -42.54439059252881,-10.42667462771756" fill="none" id="id31" stroke="none" /><text fill="#e1ed5e" style="font-size:6.75px; font-family:Arial;" text-anchor="middle"><textPath startOffset="22.145653131862474" xlink:href="#id31">July</textPath></text><line stroke="#e1ed5e" stroke-width="0.3" x1="58.13341422392154" x2="55.67067388415222" y1="173.97424548756322" y2="178.32567169271397" /><path d="M 57.64086615596768 174.84453072859336 a86.0,86.0 0 0,1 -31.369924170532247,-30.572349798747897" fill="none" id="id32" stroke="none" /><text fill="#e1ed5e" style="font-size:6.75px; font-family:Arial;" text-anchor="middle"><textPath startOffset="22.145653131862474" xlink:href="#id32">August</textPath></text><line stroke="#e1ed5e" stroke-width="0.3" x1="26.387840678322732" x2="22.057713659400548" y1="142.50000000000003" y2="145.00000000000006" /><path d="M 25.521815274538298 143.00000000000003 a86.0,86.0 0 0,1 -11.493303480769221,-40.785679425670985" fill="none" id="id33" stroke="none" /><text fill="#e1ed5e" style="font-size:6.75px; font-family:Arial;" text-anchor="middle"><textPath startOffset="21.40746469413373" xlink:href="#id33">September</textPath></text><line stroke="#e1ed5e" stroke-width="0.3" x1="15.003131293944662" x2="10.003315487706104" y1="100.72959589197737" y2="100.7725132973878" /><path d="M 14.003168132696942 100.73817937305945 a86.0,86.0 0 0,1 10.791469493833604,-42.45332614584628" fill="none" id="id34" stroke="none" /><text fill="#e1ed5e" style="font-size:6.75px; font-family:Arial;" text-anchor="middle"><textPath startOffset="22.145653131862435" xlink:href="#id34">October</textPath></text><line stroke="#e1ed5e" stroke-width="0.3" x1="26.387840678322718" x2="22.05771365940052" y1="57.49999999999999" y2="54.99999999999999" /><path d="M 25.521815274538284 56.99999999999999 a86.0,86.0 0 0,1 29.574782752854787,-30.34633250058573" fill="none" id="id35" stroke="none" /><text fill="#e1ed5e" style="font-size:6.75px; font-family:Arial;" text-anchor="middle"><textPath startOffset="21.40746469413373" xlink:href="#id35">November</textPath></text><line stroke="#e1ed5e" stroke-width="0.3" x1="56.869717070023135" x2="54.33264160355391" y1="26.7553504044142" y2="22.446841604673864" /><path d="M 56.362301976729285 25.89364864446614 a86.0,86.0 0 0,1 42.16139366436587,-11.88097634709845" fill="none" id="id36" stroke="none" /><text fill="#e1ed5e" style="font-size:6.75px; font-family:Arial;" text-anchor="middle"><textPath startOffset="22.145653131862474" xlink:href="#id36">December</textPath></text></svg>