<?xml version="1.0" encoding="utf-8" ?>
<svg baseProfile="full" height="200mm" version="1.1" viewBox="0,0,200,200" width="200mm" xmlns="http://www.w3.org/2000/svg" xmlns:ev="http://www.w3.org/2001/xml-events" xmlns:xlink="http://www.w3.org/1999/xlink"><defs /><rect fill="#1a1a1a" height="200" width="200" x="0" y="0" /><text alignment-baseline="middle" fill="#e1ed5e" style="dominant-baseline: central; font-size:9.0px; font-family:Arial;" text-anchor="middle" x="100.0" y="100.0">2022</text><line stroke="#e1ed5e" stroke-width="0.3" x1="100.0" x2="100.0" y1="15.0" y2="10.0" /><path d="M 100.0 14.0 a86.0,86.0 0 0,1 42.46469731375804,11.215312516191453" fill="none" id="id1" stroke="none" /><text fill="#e1ed5e" style="font-size:6.75px; font-family:Arial;" text-anchor="middle"><textPath startOffset="22.20632615414155" xlink:href="#id1">January</textPath></text><path d="M 100.72285384407766 79.0124445844662 l 0.5624434121638147 -16.33015080102662 a37.339833774434695,37.339833774434695 0 0,0 0.6421725373664552,0.027653300304815102 l -0.8434567819196015 16.318049774197608" fill="#ffc812" stroke="none" /><path d="M 101.08401301168833 79.027996857942 l 0.40195607147434625 -7.776497055879424 a28.786878395319683,28.786878395319683 0 0,0 0.49463801049859024,0.029837915591088945 l -0.5357561308125484 7.768425870908031" fill="#ff5407" stroke="none" /><path d="M 101.44485096284872 79.0497635885617 l 0.45528537212113174 -6.601605581382085 a27.6172865301574,27.6172865301574 0 0,0 0.47397814326952353,0.03678982617843827 l -0.5688537047529965 6.5927904930151815" fill="#ff4406" stroke="none" /><path d="M 101.80526077348638 79.07773832637324 l 0.9529511471872137 -11.044328640193637 a32.085364721177505,32.085364721177505 0 0,0 0.5498436452998532,0.05221427944657867 l -1.1429199195773112 11.02628881623188" fill="#ff820c" stroke="none" /><path d="M 102.16513564639614 79.11191278185805 l 0.5290945306673556 -5.104425083766587 a26.131773227469004,26.131773227469004 0 0,0 0.4470191923638093,0.05022781478329841 l -0.6168804265408901 5.0945613155126885" fill="#ff2f04" stroke="none" /><path d="M 102.52436894288641 79.15227682838746 l 0.988340978528826 -8.162300989161237 a29.22192041602823,29.22192041602823 0 0,0 0.49883943208866643,0.06476367507267151 l -1.1286951391253384 8.144078990924427" fill="#ff5a08" stroke="none" /><path d="M 102.88285421437855 79.19881850522331 l 0.3743279848869221 -2.700956681531456 a23.726772530993173,23.726772530993173 0 0,0 0.4040680881617358,0.059549132640064166 l -0.4207650534773137 2.6941130647304226" fill="#ff0b01" stroke="none" /><path d="M 103.2404852339499 79.25152402106235 l 0.4650759092788759 -2.9778306751588537 a24.01392951664577,24.01392951664577 0 0,0 0.407860347829864,0.06730045207424078 l -0.516265463247615 2.9693839601449885" fill="#ff1001" stroke="none" /><path d="M 103.95276090670814 79.375362276772 l 4.190650906642111 -21.8658954624175 a43.263848261132004,43.263848261132004 0 0,0 0.7301981466410705,0.1464708788686874 l -4.566415462750307 21.790520627471604" fill="#ecff1a" stroke="none" /><path d="M 104.307194497241 79.44645832069477 l 0.42761293127412386 -2.0405301435034797 a23.08485397223383,23.08485397223383 0 0,0 0.3882182924832242,0.0848494821468751 l -0.462673947910876 2.0328671632607342" fill="#ff0200" stroke="none" /><path d="M 104.66035177308747 79.52364482259891 l 3.4743643401582402 -15.265439543771873 a36.65582485954404,36.65582485954404 0 0,0 0.6140309962113274,0.1453212982574005 l -3.736619023332091 15.203372333373602" fill="#ffbf11" stroke="none" /><path d="M 105.01212808612495 79.60689891045804 l 0.7837292419885218 -3.188799125654183 a24.28369782235223,24.28369782235223 0 0,0 0.40506492842994285,0.10326006940364965 l -0.8385030591034898 3.1748360600816654" fill="#ff1402" stroke="none" /><path d="M 105.36241919743992 79.69619591428918 l 2.0352974877160137 -7.706275829098555 a28.970515856433117,28.970515856433117 0 0,0 0.48105142997219913,0.1314895276344453 l -2.1676468069119235 7.670099760637816" fill="#ff5708" stroke="none" /><path d="M 106.0581310904928 79.89281104454417 l 0.9794967797562788 -3.2509905344781744 a24.395342898268098,24.395342898268098 0 0,0 0.40102996220094517,0.1246019613696617 l -1.0353121146679423 3.233648438225992" fill="#ff1502" stroke="none" /><path d="M 106.74666289553966 80.11325718540242 l 3.6511923377890327 -10.76240566817765 a32.364883688536004,32.364883688536004 0 0,0 0.5260341542522072,0.18352298746721935 l -3.835908496104514 10.697961827538222" fill="#ff860c" stroke="none" /><path d="M 107.08798089147638 80.2323363322302 l 2.553487598403521 -7.121419315021334 a28.565375864790823,28.565375864790823 0 0,0 0.4614228744898343,0.1699459387824308 l -2.675692798665932 7.076410108432578" fill="#ff5107" stroke="none" /><path d="M 108.76106565485865 80.91482961587045 l 1.2517648325026327 -2.726853792714738 a24.000441101360448,24.000441101360448 0 0,0 0.37397463175170537,0.17558610405976666 l -1.298517675553936 2.7049027060149684" fill="#ff1001" stroke="none" /><path d="M 109.41281617654863 81.2277094730956 l 5.30874033018266 -10.58739636904546 a32.84380368667874,32.84380368667874 0 0,0 0.5031975897086977,0.25775734974921466 l -5.490198407480113 10.494446493983746" fill="#ff8c0c" stroke="none" /><path d="M 109.73455568895987 81.39251694778311 l 3.7750387293584446 -7.215939938344038 a29.14375261178437,29.14375261178437 0 0,0 0.44250618490575794,0.23637147901699732 l -3.8986899607925136 7.149889732825286" fill="#ff5908" stroke="none" /><line stroke="#e1ed5e" stroke-width="0.3" x1="143.23703022742887" x2="145.7803849466894" y1="26.81831364943548" y2="22.513508569990506" /><path d="M 143.74570117128098 25.957352633546492 a86.0,86.0 0 0,1 28.547481713284135,27.462654790039103" fill="none" id="id2" stroke="none" /><text fill="#e1ed5e" style="font-size:6.75px; font-family:Arial;" text-anchor="middle"><textPath startOffset="19.985693538727396" xlink:href="#id2">February</textPath></text><path d="M 112.19680574252982 82.90503203632743 l 4.7622682959507046 -6.674765973341223 a29.199493894228535,29.199493894228535 0 0,0 0.40664422616505164,0.29544432407673854 l -4.876457838469545 6.59180241444781" fill="#ff5a08" stroke="none" /><path d="M 112.48926042617603 83.11751280151076 l 3.3978149196161977 -4.593031526753089 a26.713237683985696,26.713237683985696 0 0,0 0.3673119108008274,0.2766517160406728 l -3.476372984175408 4.533863221206569" fill="#ff3705" stroke="none" /><path d="M 112.77801427241765 83.33499621200491 l 6.561955604445334 -8.558060170647058 a31.784231787156983,31.784231787156983 0 0,0 0.43130815802888284,0.3366428586381838 l -6.708296317633647 8.443838922785652" fill="#ff7e0b" stroke="none" /><path d="M 113.06298171725822 83.55741782278167 l 5.065592653354764 -6.3761417784929035 a29.143427589729303,29.143427589729303 0 0,0 0.3901008785549881,0.31543444742713395 l -5.174596930474243 6.28800123380164" fill="#ff5908" stroke="none" /><path d="M 113.34407831869373 83.78471172551755 l 12.13773943739658 -14.749384654181696 a40.10154617634768,40.10154617634768 0 0,0 0.529230537098128,0.4432153549642193 l -12.389827511453824 14.538268141823657" fill="#ffeb16" stroke="none" /><path d="M 113.89432698308785 84.25364557470407 l 22.051983526709602 -24.991375891399052 a54.329549147977886,54.329549147977886 0 0,0 0.6959072271271283,0.6247923796358967 l -22.47890174143272 24.608084502993858" fill="#6eff28" stroke="none" /><path d="M 114.16331599549186 84.49514656593476 l 42.48994798647556 -46.51456030219571 a84.0,84.0 0 0,0 1.0591684648206128,0.984381655701438 l -43.28432433509102 45.77627406041963" fill="#4dd2ff" stroke="none" /><path d="M 114.42810811169701 84.74124197986012 l 5.826199171785467 -6.161623038251373 a29.47998792775224,29.47998792775224 0 0,0 0.36571575396586103,0.3518182655589462 l -5.931398169363746 6.060421685930126" fill="#ff5e08" stroke="none" /><path d="M 114.94478906791727 85.2469230424477 l 5.796827648939169 -5.722465805694029 a29.145540233087246,29.145540233087246 0 0,0 0.3493797157308036,0.36006650840464277 l -5.894471628373081 5.621835101739273" fill="#ff5908" stroke="none" /><path d="M 115.68641384162765 86.03803664274999 l 18.490065031720924 -16.457401484651278 a45.753354691925516,45.753354691925516 0 0,0 0.5185557469184241,0.5927988601524669 l -18.770612642217195 16.136687068295863" fill="#ceff1d" stroke="none" /><path d="M 115.9244219780498 86.31012108654704 l 6.174715509991827 -5.308268505652864 a29.142777545619168,29.142777545619168 0 0,0 0.3237476521380434,0.3832151048653602 l -6.265173775616988 5.201194451158397" fill="#ff5908" stroke="none" /><path d="M 116.15771136456269 86.58626213691792 l 2.221432109879283 -1.8441787534283327 a23.887170915169243,23.887170915169243 0 0,0 0.2599168844830819,0.31862736745789777 l -2.252847486438774 1.805667216362334" fill="#ff0e01" stroke="none" /><path d="M 116.38621287248628 86.86637796730983 l 6.27604303986909 -5.0302762320961945 a29.043158285740816,29.043158285740816 0 0,0 0.3093039922509303,0.39278465984648697 l -6.361701112713984 4.92149917829667" fill="#ff5808" stroke="none" /><path d="M 116.60985879189232 87.15038557335679 l 1.9730489580376958 -1.5263777177955244 a23.494544272647072,23.494544272647072 0 0,0 0.2447058145665557,0.3220041678764236 l -1.9990307128283649 1.4921887740380673" fill="#ff0801" stroke="none" /><path d="M 116.82858285166822 87.43820079747576 l 6.539760606260715 -4.881644538493134 a29.16081626967544,29.16081626967544 0 0,0 0.296797937450027,0.40483205313360604 l -6.622821156224369 4.768350041688034" fill="#ff5a08" stroke="none" /><path d="M 117.04232023915458 87.72973835380427 l 1.6914128946089466 -1.2177965486717446 a23.084203928123692,23.084203928123692 0 0,0 0.22939914484157375,0.32446882192946847 l -1.7121246592544033 1.188501226410483" fill="#ff0200" stroke="none" /><path d="M 117.2510076193507 88.02491185347247 l 6.790960568546767 -4.714063850781669 a29.266773459627615,29.266773459627615 0 0,0 0.2837142402474202,0.416315639064627 l -6.871099274462921 4.596470188446635" fill="#ff5b08" stroke="none" /><path d="M 117.45458315368197 88.32363383020206 l 4.0372385188311615 -2.7007391036285666 a25.857292101964063,25.857292101964063 0 0,0 0.24429398826488688,0.3720765041745857 l -4.0831291424539735 2.630844535476307" fill="#ff2b04" stroke="none" /><path d="M 117.65298651832404 88.62581576622439 l 6.8393676776392 -4.406746015879461 a29.13611459349027,29.13611459349027 0 0,0 0.2680139662894193,0.42393373097663795 l -6.914209240174575 4.288364637188617" fill="#ff5908" stroke="none" /><line stroke="#e1ed5e" stroke-width="0.3" x1="172.23445277983987" x2="176.4835382374775" y1="55.19839476539836" y2="52.563006222186495" /><path d="M 173.08426987136738 54.67131705675599 a86.0,86.0 0 0,1 12.851231095245387,41.99856678651699" fill="none" id="id3" stroke="none" /><text fill="#e1ed5e" style="font-size:6.75px; font-family:Arial;" text-anchor="middle"><textPath startOffset="22.20632615414155" xlink:href="#id3">March</textPath></text><path d="M 118.03404312379186 89.2402003453031 l 6.984908594092201 -4.167463533435326 a29.13367692807726,29.13367692807726 0 0,0 0.25324147001559705,0.43287176168525854 l -7.055609738578125 4.046612359396172" fill="#ff5908" stroke="none" /><path d="M 118.21658344932153 89.55222093294921 l 7.064208983214558 -4.051544294539494 a29.14359010075684,29.14359010075684 0 0,0 0.24583639484069367,0.43731551525950385 l -7.132903019347684 3.929345269345196" fill="#ff5908" stroke="none" /><path d="M 118.3937258080291 89.86733742301442 l 3.9316300671988658 -2.1658407472328163 a25.488717091516925,25.488717091516925 0 0,0 0.20839077552025448,0.3861164579652627 l -3.9683289419375853 2.0978433059350947" fill="#ff2503" stroke="none" /><path d="M 118.56541770881063 90.18545643968196 l 7.301776974624157 -3.8600590252901523 a29.259297952361052,29.259297952361052 0 0,0 0.23155330057333,0.4472872747723779 l -7.367139708357604 3.7337990282574296" fill="#ff5b08" stroke="none" /><path d="M 118.89224826269711 90.83032412892265 l 7.447717192105955 -3.614876942195769 a29.278636764637596,29.278636764637596 0 0,0 0.216162510754313,0.4552933759618152 l -7.508837896702024 3.4861411505934137" fill="#ff5b08" stroke="none" /><path d="M 119.04729006885535 91.15688171328212 l 7.424820041079551 -3.447134035524547 a29.186005478943212,29.186005478943212 0 0,0 0.20763436169757982,0.4574947930230036 l -7.483056719740477 3.318817233659481" fill="#ff5a08" stroke="none" /><path d="M 119.34039704204932 91.81776055985345 l 7.505999381342309 -3.175523441540833 a29.150090541858198,29.150090541858198 0 0,0 0.19152763428953362,0.4637993582677846 l -7.55954870251804 3.0458495128197454" fill="#ff5908" stroke="none" /><path d="M 119.61058180528143 92.48833698450437 l 8.78759607059805 -3.3660123424206 a30.41020104935692,30.41020104935692 0 0,0 0.18303380358960836,0.49043959493826095 l -8.844234462689283 3.2142496104530056" fill="#ff6b09" stroke="none" /><path d="M 119.7369772167798 92.82701384747503 l 1.895465843743615 -0.6888668969125603 a23.01676185169708,23.01676185169708 0 0,0 0.13212379671220886,0.37353176528722454 l -1.9070427212656333 0.6561375051987212" fill="#ff0100" stroke="none" /><path d="M 119.85752413597 93.16781622104841 l 7.0184089577472974 -2.4147552084960497 a28.42220364953336,28.42220364953336 0 0,0 0.15518889463930324,0.4639950421561716 l -7.058935146158371 2.293587063417564" fill="#ff4f07" stroke="none" /><path d="M 120.08093135843002 93.85539295169968 l 12.01231983723081 -3.6756753868042145 a33.56210242837906,33.56210242837906 0 0,0 0.16428505762716114,0.5538875438418623 l -12.073810791969674 3.4683584562158223" fill="#ff960d" stroke="none" /><path d="M 120.18372546131832 94.20196356495316 l 16.561426029538637 -4.7574840293793 a38.23120676045874,38.23120676045874 0 0,0 0.17625174245833822,0.6340712938724157 l -16.64086454256334 4.471701432087932" fill="#ffd313" stroke="none" /><path d="M 120.28053869075195 94.5502522615342 l 24.956196153683045 -6.706181508445932 a46.84152853229326,46.84152853229326 0 0,0 0.20254202912067165,0.7804770602954725 l -25.067934514674022 6.2756080226016095" fill="#c2ff1e" stroke="none" /><path d="M 120.37134235888165 94.90015583598534 l 2.0793518573745096 -0.5205533463601646 a23.143520453173608,23.143520453173608 0 0,0 0.09341959147247514,0.3872845180303714 l -2.0880042491078044 0.484683596670387" fill="#ff0300" stroke="none" /><path d="M 120.45610955862082 95.25157060432595 l 3.1730066087275857 -0.7365426847355 a24.257371035891722,24.257371035891722 0 0,0 0.09091386938566079,0.40754905003757175 l -3.185214865115284 0.6818154651479643" fill="#ff1302" stroke="none" /><path d="M 120.6074358757038 95.95851677861258 l 6.424055806139637 -1.2598711411922883 a27.546431722152576,27.546431722152576 0 0,0 0.08724909356502222,0.4660881465981667 l -6.4447906236145185 1.1491049171315586" fill="#ff4306" stroke="none" /><path d="M 120.67395015179393 96.31383870115 l 23.975139480484994 -4.274762715330706 a45.35325254213679,45.35325254213679 0 0,0 0.1304189759534692,0.7697401786723049 l -24.045170317958686 3.861436748342563" fill="#d3ff1c" stroke="none" /><path d="M 120.78858239683441 97.02765380044208 l 3.064828614648374 -0.43820841225006385 a24.095997585550446,24.095997585550446 0 0,0 0.055172950981237354,0.4111025697408028 l -3.0719175646874475 0.38538750044459674" fill="#ff1101" stroke="none" /><path d="M 120.83666639777658 97.38593545837742 l 14.644779647264897 -1.8372612233152692 a35.75957654269397,35.75957654269397 0 0,0 0.07136529664978318,0.6114142796431421 l -14.674235296918269 1.5849032053472742" fill="#ffb310" stroke="none" /><path d="M 120.91429891909075 98.10471618934814 l 19.526615715516414 -1.7695299653892227 a40.60663044992339,40.60663044992339 0 0,0 0.057091986875476675,0.6966668485806969 l -19.554182186211385 1.433149199600757" fill="#fff116" stroke="none" /><path d="M 120.94382443527127 98.46500227214037 l 14.82220235141406 -1.0863367863693423 a35.861958490040394,35.861958490040394 0 0,0 0.03982284178152026,0.6160417363531419 l -14.838705784199995 0.8310359857631653" fill="#ffb510" stroke="none" /><path d="M 120.98425023603335 99.18683210126433 l 8.180678012572566 -0.31701226752880124 a29.186818034080883,29.186818034080883 0 0,0 0.015133094886788644,0.5021937455898964 l -8.184922801914999 0.1761483745139058" fill="#ff5a08" stroke="none" /><line stroke="#e1ed5e" stroke-width="0.3" x1="184.98032266829074" x2="189.97916517819016" y1="98.17113171792111" y2="98.06355123074" /><path d="M 185.9800911702706 98.14961562048488 a86.0,86.0 0 0,1 -9.607161424134198,41.387399972396054" fill="none" id="id4" stroke="none" /><text fill="#e1ed5e" style="font-size:6.75px; font-family:Arial;" text-anchor="middle"><textPath startOffset="21.466115282336823" xlink:href="#id4">April</textPath></text><path d="M 120.99824983174949 100.27111621757518 l 8.144698875322685 0.10515923803457175 a29.14537772205971,29.14537772205971 0 0,0 -0.01079480575923622,0.5015922062569659 l -8.141682006878442 -0.24534126008165244" fill="#ff5908" stroke="none" /><path d="M 120.9904718944345 100.63252640178507 l 8.241743379454103 0.2483565072028827 a29.245484515020664,29.245484515020664 0 0,0 -0.019494019378259685,0.5030540204250008 l -8.23624722722464 -0.39018777464188964" fill="#ff5b08" stroke="none" /><path d="M 120.95626037817324 101.35467743843564 l 8.144629464894647 0.5264940204695387 a29.16162882481311,29.16162882481311 0 0,0 -0.03669288516689565,0.5006452654692974 l -8.134360021063413 -0.6666124224356065" fill="#ff5a08" stroke="none" /><path d="M 120.89721153311464 102.0752229133903 l 8.105670347729532 0.8049434158878676 a29.145540233087246,29.145540233087246 0 0,0 -0.053874418731282986,0.49881020763934997 l -8.090613627497197 -0.944349945412009" fill="#ff5908" stroke="none" /><path d="M 120.8583938346157 102.4346265915055 l 3.7164233617200773 0.4337871464829737 a24.741653897943074,24.741653897943074 0 0,0 -0.05301605162591788,0.4225900944170596 l -3.708405800847311 -0.49769499518742816" fill="#ff1a02" stroke="none" /><path d="M 120.81339534386255 102.79330883721812 l 16.188196378559756 2.1725735400585324 a37.33333333333333,37.33333333333333 0 0,0 -0.0909616870815976,0.6361858275903833 l -16.148400640461556 -2.450904839629325" fill="#ffc812" stroke="none" /><path d="M 120.70491114924044 103.5080841355445 l 15.995986710947983 2.7102394600285864 a37.22396341180294,37.22396341180294 0 0,0 -0.11247585279594131,0.6308243143644477 l -15.946964415812854 -2.9851825251262523" fill="#ffc612" stroke="none" /><path d="M 120.5718875245553 104.21870165774334 l 7.502684645472457 1.5385845423080278 a28.658819705622882,28.658819705622882 0 0,0 -0.10326176866899182,0.4824046056086316 l -7.475088838079022 -1.6675029673328283" fill="#ff5307" stroke="none" /><path d="M 120.41448212921028 104.9243191809786 l 1.895601144297367 0.457251132566918 a22.949969819380602,22.949969819380602 0 0,0 -0.09594036606721155,0.38323407153936906 l -1.8874494639350947 -0.48981304350368304" fill="#ff0000" stroke="none" /><path d="M 120.32669344350535 105.2749913415812 l 7.9218136889103485 2.0557942065079566 a29.18421785764034,29.18421785764034 0 0,0 -0.13037274369932844,0.485165479156301 l -7.885252868869243 -2.1918506188398057" fill="#ff5a08" stroke="none" /><path d="M 120.02730092923936 106.31721596034902 l 14.728253970736754 4.6457364065555975 a36.44358545758462,36.44358545758462 0 0,0 -0.19385861411256258,0.5966354651938484 l -14.646103105607946 -4.8985707717272415" fill="#ffbc11" stroke="none" /><path d="M 119.79798401119884 107.00284435728193 l 7.162218171484137 2.533384160701857 a28.597065515159958,28.597065515159958 0 0,0 -0.16814494274125344,0.46266266704455206 l -7.117548967737657 -2.6562946247525403" fill="#ff5207" stroke="none" /><path d="M 119.54520255179757 107.68017299344265 l 5.591971054019499 2.197332309827801 a27.00819519895993,27.00819519895993 0 0,0 -0.1737493602383586,0.4312316630302835 l -5.553319079523749 -2.2932633407008978" fill="#ff3b05" stroke="none" /><path d="M 119.12269723197855 108.67885076344098 l 7.426097665220681 3.3703401047112354 a29.155128383711748,29.155128383711748 0 0,0 -0.21134050425211567,0.45520864442516495 l -7.366982544128733 -3.497668816415231" fill="#ff5a08" stroke="none" /><path d="M 118.81262510543309 109.33194174019688 l 7.301316914207179 3.6217946027329226 a29.15025305288573,29.15025305288573 0 0,0 -0.22684633952235514,0.4475893487954134 l -7.2378919048985555 -3.7469381632310306" fill="#ff5908" stroke="none" /><line stroke="#e1ed5e" stroke-width="0.3" x1="174.80103733775053" x2="179.2010983576182" y1="140.37084112569926" y2="142.7455964860345" /><path d="M 175.68104954172406 140.8457921977663 a86.0,86.0 0 0,1 -30.038265399797805,32.042727171017184" fill="none" id="id5" stroke="none" /><text fill="#e1ed5e" style="font-size:6.75px; font-family:Arial;" text-anchor="middle"><textPath startOffset="22.206326154141568" xlink:href="#id5">May</textPath></text><path d="M 117.75023020441432 111.22182372390056 l 6.50135731976699 4.110205049079978 a28.69164693318475,28.69164693318475 0 0,0 -0.26750880624858775,0.415179607889273 l -6.429643650141352 -4.221506256890704" fill="#ff5307" stroke="none" /><path d="M 117.55443506779139 111.5257021239791 l 13.817960345688318 9.072447748408026 a37.53013418767702,37.53013418767702 0 0,0 -0.35921144882104816,0.5369723775380753 l -13.65974579145655 -9.308957040151908" fill="#ffca12" stroke="none" /><path d="M 116.93607887273984 112.41649034213515 l 17.96137599723446 13.168175070327885 a43.27132376839857,43.27132376839857 0 0,0 -0.44556839238595536,0.5969116753470246 l -17.73204633815341 -13.475399625184226" fill="#ecff1a" stroke="none" /><path d="M 116.498646956653 112.99209946851258 l 8.844169527536746 6.9644699059282935 a32.25713887728096,32.25713887728096 0 0,0 -0.3472743480243916,0.4332781450324708 l -8.7229772674575 -7.115675884539015" fill="#ff840c" stroke="none" /><path d="M 116.0416608686014 113.55231037782055 l 7.783722416633206 6.575841675563963 a31.189603937410038,31.189603937410038 0 0,0 -0.3500030376843527,0.4071326051107556 l -7.669376869378075 -6.708851379836246" fill="#ff760a" stroke="none" /><path d="M 115.32070863581623 114.36230785411682 l 14.010726514218257 13.13427284862134 a40.2044156567767,40.2044156567767 0 0,0 -0.4776542053334654,0.5008185246557911 l -13.782565757505827 -13.373498489859637" fill="#ffec16" stroke="none" /><path d="M 114.81725581225074 114.88116024355365 l 5.474112708957066 5.497721672991063 a28.758276454473695,28.758276454473695 0 0,0 -0.35379533769539784,0.3462632019827569 l -5.3786674188858745 -5.591134977896392" fill="#ff5407" stroke="none" /><path d="M 114.29624159901734 115.38237550388516 l 3.5137099966320795 3.780658448278099 a26.161350234480196,26.161350234480196 0 0,0 -0.332498864958949,0.3037298296680031 l -3.4481115822062667 -3.840581044532685" fill="#ff2f04" stroke="none" /><path d="M 114.0293411484842 115.62618273729858 l 6.950507036928374 7.741624636995669 a31.403955982727396,31.403955982727396 0 0,0 -0.40534678181443695,0.35767140608905107 l -6.81621790220735 -7.86011918485701" fill="#ff790b" stroke="none" /><path d="M 113.48314897796784 116.09983520530334 l 5.861458397071096 6.998996629777594 a30.129219482750614,30.129219482750614 0 0,0 -0.4004745314889984,0.3295632752481531 l -5.740113737037406 -7.098855023882925" fill="#ff6709" stroke="none" /><path d="M 112.63410532772338 116.77436683061366 l 10.96985511577411 14.564733237334604 a39.23373728931605,39.23373728931605 0 0,0 -0.5429482725202315,0.4016601519504997 l -10.717521872835313 -14.751403338024874" fill="#ffe015" stroke="none" /><path d="M 111.7513745106137 117.40417183066458 l 5.185184193451365 7.67942818901451 a30.266053767934253,30.266053767934253 0 0,0 -0.43428227474167774,0.2878186110101442 l -5.052227219969723 -7.7675448211159726" fill="#ff6909" stroke="none" /><path d="M 111.1453310114006 117.79835938074945 l 3.84681330144618 6.1431074177834 a28.248154339044437,28.248154339044437 0 0,0 -0.4143342428546711,0.2545179329409143 l -3.7404998586592004 -6.208413817552692" fill="#ff4d07" stroke="none" /><line stroke="#e1ed5e" stroke-width="0.3" x1="143.8653032363475" x2="146.44561519142675" y1="172.8068346515853" y2="177.08958963109032" /><path d="M 144.38136562736335 173.6633856474863 a86.0,86.0 0 0,1 -40.68145358897372,12.25698825130547" fill="none" id="id6" stroke="none" /><text fill="#e1ed5e" style="font-size:6.75px; font-family:Arial;" text-anchor="middle"><textPath startOffset="21.466115282336833" xlink:href="#id6">June</textPath></text><path d="M 110.5260780823613 118.17145234162733 l 9.156536125119175 15.807175142545274 a39.267702094070664,39.267702094070664 0 0,0 -0.5878024082591489,0.33376954811005966 l -8.883084949938828 -15.962447856449963" fill="#ffe015" stroke="none" /><path d="M 109.2508944713604 118.85261126421891 l 4.0458613939494255 8.245154274019372 a30.184310721084643,30.184310721084643 0 0,0 -0.4684135471022022,0.2248669680534368 l -3.9033351788469903 -8.31357551857237" fill="#ff6809" stroke="none" /><path d="M 108.59647513512805 119.15986991738527 l 3.389374964476937 7.554257111179691 a29.279774341830336,29.279774341830336 0 0,0 -0.4616156159650666,0.20235872040662448 l -3.258838673854117 -7.61148038488077" fill="#ff5b08" stroke="none" /><path d="M 107.59598834532513 119.57807347666477 l 0.8475256532393688 2.1844319340867093 a23.343083994985374,23.343083994985374 0 0,0 -0.3758567541904175,0.14211686365079892 l -0.8097986782886765 -2.1986970478441394" fill="#ff0600" stroke="none" /><path d="M 106.57524785965236 119.94407469862006 l 6.334009911759499 19.21235054835031 a41.22953521846125,41.22953521846125 0 0,0 -0.6759261394065496,0.21641020479401699 l -6.0023624272620095 -19.318533599804034" fill="#fff917" stroke="none" /><path d="M 105.88484417918355 120.15858648285463 l 5.671486585434229 19.427728133098597 a41.238635836003155,41.238635836003155 0 0,0 -0.6831255274871411,0.1930580976243267 l -5.336229889842482 -19.522475024061443" fill="#fff917" stroke="none" /><path d="M 104.48393922423573 120.51570834832081 l 4.276123898564031 19.564875074589605 a41.0267214560988,41.0267214560988 0 0,0 -0.6912192552726808,0.14485171554132456 l -3.938713181861972 -19.635582770857468" fill="#fff617" stroke="none" /><path d="M 101.98527174616119 120.90594882070398 l 1.8138177159870805 19.10044829572328 a40.186376932720435,40.186376932720435 0 0,0 -0.6892072381761667,0.05946770054265525 l -1.4847661600693722 -19.128840248544595" fill="#ffec16" stroke="none" /><path d="M 101.26447882468166 120.96189622390904 l 0.5729110076261164 9.497431552811642 a30.51469564006129,30.51469564006129 0 0,0 -0.5245794864187285,0.027114767487435194 l -0.40934345279390816 -9.505886127061279" fill="#ff6c0a" stroke="none" /><line stroke="#e1ed5e" stroke-width="0.3" x1="102.19456741930631" x2="102.32365962044197" y1="184.97166512339345" y2="189.96999836594603" /><path d="M 102.22038585953345 185.97133177190398 a86.0,86.0 0 0,1 -42.740103519485714,-10.115201625700543" fill="none" id="id7" stroke="none" /><text fill="#e1ed5e" style="font-size:6.75px; font-family:Arial;" text-anchor="middle"><textPath startOffset="22.20632615414155" xlink:href="#id7">July</textPath></text><path d="M 99.45781275523022 120.99299961872073 l -0.2621649998835351 10.150791623535678 a31.15417653340762,31.15417653340762 0 0,0 -0.5359699972312187,-0.018459890403535704 l 0.43685534878939686 -10.14477493470605" fill="#ff750a" stroke="none" /><path d="M 98.73552117531835 120.96189622390904 l -1.1764207158200752 19.50211302817643 a40.53756326322143,40.53756326322143 0 0,0 -0.6961597571427449,-0.04801125274438754 l 1.5119432337417502 -19.47897343091576" fill="#fff016" stroke="none" /><path d="M 97.65516085044442 120.86867818915974 l -1.1095806001843709 9.87508267872916 a30.937224311649718,30.937224311649718 0 0,0 -0.5286914958266162,-0.06401717738895381 l 1.2793995190623766 -9.85451997261486" fill="#ff720a" stroke="none" /><path d="M 96.93821686468263 120.77559828337769 l -0.4191464585269084 2.8441003361111226 a23.87482007707666,23.87482007707666 0 0,0 -0.406058547349101,-0.06341799408012566 l 0.46804086948452656 -2.836464034683891" fill="#ff0e01" stroke="none" /><path d="M 95.86986931433489 120.58985236759428 l -3.6593056316454087 18.242658273500147 a39.60605005339648,39.60605005339648 0 0,0 -0.6672837470450841,-0.13983579707164778 l 3.9727808401198796 -18.176966495701958" fill="#ffe515" stroke="none" /><path d="M 94.46302465271185 120.25689768951611 l -2.772215497506994 10.14208700311335 a31.514138459395458,31.514138459395458 0 0,0 -0.5220374540028266,-0.1475329989923847 l 2.9463841196144345 -10.092865210782444" fill="#ff7a0b" stroke="none" /><path d="M 93.76903079525671 120.05430185196036 l -5.890445884225908 18.958331508841194 a40.85234712355481,40.85234712355481 0 0,0 -0.669742434170259,-0.21443037765233194 l 6.215909663487108 -18.854128284529157" fill="#fff417" stroke="none" /><path d="M 92.06813273071674 119.44442032107085 l -3.3946540640172826 8.321758070889649 a29.987509866740957,29.987509866740957 0 0,0 -0.4762709713885505,-0.1990813046671343 l 3.5373964949032954 -8.262091723202541" fill="#ff6509" stroke="none" /><path d="M 91.07499286063937 119.00905698771935 l -4.199012041638181 8.943327209185629 a30.880020429957746,30.880020429957746 0 0,0 -0.4792098795246166,-0.23004986370823974 l 4.352334589163039 -8.869723068977827" fill="#ff720a" stroke="none" /><path d="M 90.10565033884886 118.52300852407294 l -2.3279156238719256 4.358042966038208 a25.940822770116544,25.940822770116544 0 0,0 -0.3920488280282634,-0.21377628006722832 l 2.4025872637688295 -4.317326034211214" fill="#ff2c04" stroke="none" /><line stroke="#e1ed5e" stroke-width="0.3" x1="58.666819895761336" x2="56.23545636021788" y1="174.27360380694188" y2="178.64263932499728" /><path d="M 58.180547188652646 175.14741091055294 a86.0,86.0 0 0,1 -31.652253787137756,-30.449443065178592" fill="none" id="id8" stroke="none" /><text fill="#e1ed5e" style="font-size:6.75px; font-family:Arial;" text-anchor="middle"><textPath startOffset="22.20632615414155" xlink:href="#id8">August</textPath></text><path d="M 89.7882731507175 118.34994917583269 l -9.45988606950758 16.998929872162478 a40.45387008404141,40.45387008404141 0 0,0 -0.6055582830346525,-0.34385179720745673 l 9.75109311946344 -16.833574909160387" fill="#ffef16" stroke="none" /><path d="M 88.8546689885994 117.79835938074946 l -4.440382260450518 7.0909979415202065 a29.3665552305335,29.3665552305335 0 0,0 -0.426120180473222,-0.27197006035655275 l 4.561784242970663 -7.01351345233985" fill="#ff5d08" stroke="none" /><path d="M 87.65650970185807 116.9893568818739 l -11.007811970620933 15.15095338030882 a39.72760830199192,39.72760830199192 0 0,0 -0.5497828600896701,-0.40671621644246253 l 11.266979801129168 -14.95922721512659" fill="#ffe615" stroke="none" /><path d="M 87.07902340077011 116.55440617244103 l -10.297724977363668 13.193485849787068 a37.736523192645215,37.736523192645215 0 0,0 -0.5086209590750413,-0.4040792509230829 l 10.523303429156067 -13.014272684858856" fill="#ffcd13" stroke="none" /><path d="M 86.51685102203217 116.09983520530335 l -12.037713504195656 14.373882835745006 a39.74873473557134,39.74873473557134 0 0,0 -0.520773770863639,-0.44381470547567803 l 12.28335275163635 -14.164543740046376" fill="#ffe615" stroke="none" /><path d="M 85.70375840098266 115.38237550388516 l -8.609032024493764 9.263089351738309 a33.64595811858662,33.64595811858662 0 0,0 -0.42083750073047965,-0.39792812429304597 l 8.76720535961506 -9.113526590699331" fill="#ff970d" stroke="none" /><path d="M 84.9287848128048 114.62390073753433 l -13.98771865340804 13.572562437154406 a40.490272554209035,40.490272554209035 0 0,0 -0.48105036834074094,-0.504379387991238 l 14.219275573127739 -13.329775932580668" fill="#fff016" stroke="none" /><path d="M 83.95833913139862 113.55231037782056 l -7.454998840306751 6.298129537689079 a30.759274736499975,30.759274736499975 0 0,0 -0.338211408430073,-0.407397428919169 l 7.562306248630361 -6.168870851656149" fill="#ff700a" stroke="none" /><path d="M 83.50135304334701 112.99209946851258 l -7.731721872080877 6.088456822481594 a30.841180294377118,30.841180294377118 0 0,0 -0.3248504204792697,-0.4199129587468157 l 7.8353791097782155 -5.954465869621526" fill="#ff710a" stroke="none" /><path d="M 83.06392112726016 112.41649034213515 l -8.096347931184344 5.9357438430406475 a31.039118725913543,31.039118725913543 0 0,0 -0.3121947191316966,-0.43361115955215795 l 8.197322442691648 -5.795499078037351" fill="#ff740a" stroke="none" /><path d="M 82.85270091963577 112.12312394758628 l -2.4422779369929533 1.7266881510526488 a23.991015461763475,23.991015461763475 0 0,0 -0.2354993411212925,-0.3392543652560546 l 2.4716381852763796 -1.6843925236095816" fill="#ff0f01" stroke="none" /><path d="M 82.6465618267979 111.8261652097733 l -4.614933237545388 3.145023041230281 a26.584691461206297,26.584691461206297 0 0,0 -0.25444954415792087,-0.3803675443485814 l 4.66838588711404 -3.065118582675879" fill="#ff3505" stroke="none" /><path d="M 82.05923443525364 110.91462005526583 l -7.79846157598399 4.7443485513634025 a30.12824441658541,30.12824441658541 0 0,0 -0.2657298594090278,-0.44537852912248754 l 7.87897231109125 -4.609407928354804" fill="#ff6709" stroke="none" /><line stroke="#e1ed5e" stroke-width="0.3" x1="26.63291911575756" x2="22.317208475507996" y1="142.92168965132927" y2="145.44649492493687" /><path d="M 25.769776987707644 143.4266507060508 a86.0,86.0 0 0,1 -11.730757126820373,-40.83630448921669" fill="none" id="id9" stroke="none" /><text fill="#e1ed5e" style="font-size:6.75px; font-family:Arial;" text-anchor="middle"><textPath startOffset="21.46611528233685" xlink:href="#id9">September</textPath></text><path d="M 81.69416730710424 110.29060199501025 l -8.119351200208325 4.564283584405228 a30.314319543111854,30.314319543111854 0 0,0 -0.251787259987792,-0.45706701343134587 l 8.196714869647634 -4.423846052576059" fill="#ff6a09" stroke="none" /><path d="M 81.18737489456691 109.33194174019688 l -16.190807105992246 8.031397414933338 a39.07333890513999,39.07333890513999 0 0,0 -0.2936952047317024,-0.6050991113934683 l 16.326655567338666 -7.751509347574585" fill="#ffde14" stroke="none" /><path d="M 80.87730276802145 108.67885076344099 l -16.37790309275505 7.4331238441834095 a38.98574546129916,38.98574546129916 0 0,0 -0.2720813602738302,-0.6134716400361258 l 16.50342553776016 -7.150103867654588" fill="#ffdd14" stroke="none" /><path d="M 80.20201598880116 107.00284435728193 l -5.0566657557507035 1.7886186408822802 a26.36367646376004,26.36367646376004 0 0,0 -0.14764809915163732,-0.4291344886778771 l 5.086704685845569 -1.701311449115106" fill="#ff3204" stroke="none" /><path d="M 80.0844068197444 106.66101706037122 l -17.222822258543932 5.7603864395883395 a39.160607326925756,39.160607326925756 0 0,0 -0.20831158539654526,-0.641117136977827 l 17.319426094956725 -5.4630704026327095" fill="#ffdf14" stroke="none" /><path d="M 79.76711848015287 105.62410040840567 l -8.93054482400458 2.482408684235147 a30.269141477457396,30.269141477457396 0 0,0 -0.1352193518801547,-0.5032015111796543 l 8.97195225222651 -2.328316239879954" fill="#ff6909" stroke="none" /><path d="M 79.50377843672027 104.57218783832718 l -10.983914064610678 2.4502329928662063 a32.253888656730275,32.253888656730275 0 0,0 -0.11621530905173108,-0.5429192338211383 l 11.02446341238685 -2.2607999396289045" fill="#ff840c" stroke="none" /><path d="M 79.35854240842038 103.8639653848113 l -11.199598490337731 2.09650218248653 a32.39413567349213,32.39413567349213 0 0,0 -0.09788205503952746,-0.5489745463047689 l 11.234026987716447 -1.9034088854485474" fill="#ff860c" stroke="none" /><path d="M 79.23777060512086 103.15116336523772 l -11.166956612673458 1.694851930868986 a32.29484143566884,32.29484143566884 0 0,0 -0.07868553377735507,-0.5503264399728132 l 11.194476197467413 -1.5023800189157723" fill="#ff850c" stroke="none" /><path d="M 79.18660465613746 102.79330883721812 l -2.8706965161788416 0.3852683243235566 a23.896434043738683,23.896434043738683 0 0,0 -0.05120492696907042,-0.40815364892052436 l 2.8769029523947602 -0.3357969211156236" fill="#ff0e01" stroke="none" /><path d="M 79.1416061653843 102.43462659150553 l -21.97651686391708 2.5651357803383843 a43.1257138877281,43.1257138877281 0 0,0 -0.07971623615455851,-0.7380733425044768 l 22.017415401572688 -2.1864661159491257" fill="#eeff19" stroke="none" /><path d="M 79.07016306316243 101.71520430193888 l -10.94061866717358 0.8965858769200872 a31.97729488786739,31.97729488786739 0 0,0 -0.04023572264489587,-0.5489844680590953 l 10.95443094848281 -0.7081282723642313" fill="#ff810b" stroke="none" /><path d="M 79.0235259727143 100.99374915477108 l -10.270229208326075 0.48654657507279425 a31.281747690021824,31.281747690021824 0 0,0 -0.020851321349865705,-0.5380799532763443 l 10.27708266252714 -0.3096893747824532" fill="#ff770b" stroke="none" /><line stroke="#e1ed5e" stroke-width="0.3" x1="15.007084014347285" x2="10.007500721073583" y1="101.09737516637583" y2="101.16192664675087" /><path d="M 14.007167355692545 101.11028546245083 a86.0,86.0 0 0,1 10.666146001902534,-42.60595125391555" fill="none" id="id10" stroke="none" /><text fill="#e1ed5e" style="font-size:6.75px; font-family:Arial;" text-anchor="middle"><textPath startOffset="22.20632615414155" xlink:href="#id10">October</textPath></text><path d="M 79.00175016825051 100.2711162175752 l -10.53162441260402 0.1359777218837858 a31.532502205506802,31.532502205506802 0 0,0 -0.002335961864279007,-0.5427952702767814 l 10.532404671757801 0.04532702659667103" fill="#ff7a0b" stroke="none" /><path d="M 79.01574976396665 99.18683210126434 l -9.16475623787756 -0.3551466213256573 a30.17163486093699,30.17163486093699 0 0,0 0.02457751457938157,-0.5187924877766847 l 9.15728511506468 0.512850215725351" fill="#ff6809" stroke="none" /><path d="M 79.08570108090925 98.10471618934814 l -7.9941493438474085 -0.7244412968343396 a29.026907182987415,29.026907182987415 0 0,0 0.04937735986340348,-0.4972232753186623 l 7.980494858301776 0.8619401028574322" fill="#ff5808" stroke="none" /><path d="M 79.12142395522702 97.74499172005258 l -4.46243976861978 -0.4819695847755638 a25.488392069461856,25.488392069461856 0 0,0 0.05086711972082239,-0.4357984177414864 l 4.453482295895369 0.558711740841912" fill="#ff2503" stroke="none" /><path d="M 79.21141760316559 97.0276538004421 l -15.91407150376603 -2.2753898775182777 a37.07591586571946,37.07591586571946 0 0,0 0.09576904433597866,-0.6309983447278215 l 15.872546565990747 2.5489873346381913" fill="#ffc412" stroke="none" /><path d="M 79.32604984820605 96.31383870115002 l -9.817334534092733 -1.7504288416936082 a30.97216418256953,30.97216418256953 0 0,0 0.09809957521659642,-0.5240518534521643 l 9.785749234966275 1.9191587726083452" fill="#ff730a" stroke="none" /><path d="M 79.46518482838121 95.60439243477599 l -29.648368978960704 -6.3464216206139294 a51.32000742907553,51.32000742907553 0 0,0 0.19234155446501786,-0.8622294742779105 l 29.53473303749365 6.8558292644418" fill="#8fff24" stroke="none" /><path d="M 79.62865764111835 94.90015583598534 l -8.917566074003327 -2.232459525667586 a30.192761294516412,30.192761294516412 0 0,0 0.1305530226907761,-0.5030740523572003 l 8.877816719442244 2.3856300035736497" fill="#ff6809" stroke="none" /><path d="M 79.71946130924805 94.55025226153421 l -9.466825260607 -2.5439072571563375 a30.802665180851555,30.802665180851555 0 0,0 0.14200502339625487,-0.5108676241457862 l 9.421633466644384 2.7064861847210664" fill="#ff700a" stroke="none" /><path d="M 79.91906864156998 93.8553929516997 l -15.497135779661615 -4.7420016552270345 a37.206412220829264,37.206412220829264 0 0,0 0.19266634750832698,-0.6108049724286242 l 15.413213948385085 5.008056794082073" fill="#ffc612" stroke="none" /><path d="M 80.2630227832202 92.82701384747504 l -8.627042486073377 -3.135315788743923 a30.179110368203556,30.179110368203556 0 0,0 0.18164290826875648,-0.4867126869880218 l 8.571794989302992 3.2833516127612863" fill="#ff6809" stroke="none" /><path d="M 80.65960295795068 91.81776055985345 l -10.15227911776857 -4.295071007289938 a32.02344801968705,32.02344801968705 0 0,0 0.21914604682376368,-0.5058192905436556 l 10.076842361102125 4.469189442420193" fill="#ff810b" stroke="none" /><path d="M 81.43458229118936 90.18545643968196 l -2.343556775673795 -1.2389131460270537 a23.65087988113479,23.65087988113479 0 0,0 0.1933649772356017,-0.3582759357670669 l 2.3218836992197214 1.2790700651265934" fill="#ff0a01" stroke="none" /><path d="M 81.6062741919709 89.86733742301443 l -8.3019583664352 -4.573349833156167 a30.478293169893668,30.478293169893668 0 0,0 0.25709508292836974,-0.4573434650893105 l 8.2220056422144 4.715576808180262" fill="#ff6c09" stroke="none" /><line stroke="#e1ed5e" stroke-width="0.3" x1="26.266209847984243" x2="21.928928074336255" y1="57.711370442889674" y2="55.22380399835377" /><path d="M 25.398753493254645 57.213857153982495 a86.0,86.0 0 0,1 29.58750427330803,-30.492523968695096" fill="none" id="id11" stroke="none" /><text fill="#e1ed5e" style="font-size:6.75px; font-family:Arial;" text-anchor="middle"><textPath startOffset="21.46611528233685" xlink:href="#id11">November</textPath></text><path d="M 81.96595687620814 89.24020034530311 l -15.792313118858731 -9.422297821778377 a39.38958536472117,39.38958536472117 0 0,0 0.3524133715279785,-0.579274921935089 l 15.627783949044534 9.69274051692054" fill="#ffe215" stroke="none" /><path d="M 82.7489923806493 88.02491185347247 l -2.966347752719913 -2.0591420858355503 a24.61099503180573,24.61099503180573 0 0,0 0.24457162272415742,-0.34592921589786285 l 2.9304635101918772 2.1098978020651993" fill="#ff1802" stroke="none" /><path d="M 82.95767976084542 87.72973835380427 l -8.019077555072316 -5.773637531807936 a30.881320518178015,30.881320518178015 0 0,0 0.3143091795087856,-0.4287173676222269 l 7.918505763049897 5.910817343101664" fill="#ff720a" stroke="none" /><path d="M 84.07557802195018 86.31012108654704 l -12.520355268823284 -10.763476867158124 a37.510957886428,37.510957886428 0 0,0 0.4251387229504153,-0.4860070529915994 l 12.333224682295025 10.977399476352666" fill="#ffca12" stroke="none" /><path d="M 84.5562425177563 85.77008943001954 l -7.537111061720906 -6.944709957250451 a31.248757951432417,31.248757951432417 0 0,0 0.36789114825855457,-0.39244062649371136 l 7.416452591491895 7.073420000622212" fill="#ff770a" stroke="none" /><path d="M 85.05521093208273 85.24692304244772 l -5.573272238341252 -5.50177816923159 a28.831406416864,28.831406416864 0 0,0 0.3516940073727123,-0.3501837215370664 l 5.477742430801227 5.596897741418766" fill="#ff5507" stroke="none" /><path d="M 86.10567301691215 84.25364557470407 l -6.573951430452947 -7.450218303095399 a30.935924223429446,30.935924223429446 0 0,0 0.4023234642862895,-0.34889094366781787 l 6.444734167519884 7.562274240182897" fill="#ff720a" stroke="none" /><path d="M 86.93701828274178 83.55741782278169 l -3.948048714363807 -4.969471505867893 a27.346868180340806,27.346868180340806 0 0,0 0.3710936737973203,-0.289644498589125 l 3.8619224854070615 5.03669439368024" fill="#ff4006" stroke="none" /><path d="M 87.22198572758235 83.33499621200491 l -1.868515869523797 -2.436906343950375 a24.070808376282677,24.070808376282677 0 0,0 0.330978023847447,-0.2492857856678574 l 1.82629169191796 2.468708719124087" fill="#ff1101" stroke="none" /><line stroke="#e1ed5e" stroke-width="0.3" x1="56.762969772571076" x2="54.21961505331055" y1="26.818313649435495" y2="22.513508569990535" /><path d="M 56.25429882871897 25.957352633546506 a86.0,86.0 0 0,1 42.265352541879196,-11.944610805530505" fill="none" id="id12" stroke="none" /><text fill="#e1ed5e" style="font-size:6.75px; font-family:Arial;" text-anchor="middle"><textPath startOffset="22.20632615414155" xlink:href="#id12">December</textPath></text><path d="M 90.58718382345135 81.22770947309562 l -4.473458697825304 -8.921566591824758 a30.98028973394623,30.98028973394623 0 0,0 0.47876162738130845,-0.234926251317088 l 4.31922580343357 8.997248003276676" fill="#ff730a" stroke="none" /><path d="M 92.57280143429618 80.3572730644239 l -4.5975843158998755 -12.159240456761763 a33.99941960347309,33.99941960347309 0 0,0 0.5492001925225072,-0.20227506579712337 l 4.387601797604799 12.23657879036521" fill="#ff9c0e" stroke="none" /><path d="M 92.91201910852362 80.23233633223022 l -3.3792723124706083 -9.424449577037663 a31.011979384315364,31.011979384315364 0 0,0 0.5040450787373919,-0.17585143078691864 l 3.216545229669931 9.481221860996792" fill="#ff730a" stroke="none" /><path d="M 93.59665428221793 80.00007090966166 l -0.9938362021624596 -3.104104392718158 a24.25932116822213,24.25932116822213 0 0,0 0.3987939293037396,-0.1239072150640479 l 0.9402569001479912 3.1207517426647313" fill="#ff1302" stroke="none" /><path d="M 93.94186890950719 79.89281104454417 l -2.879513315914927 -9.557224410959837 a30.981589822166505,30.981589822166505 0 0,0 0.5119483208939174,-0.1494517534162333 l 2.7145747772975883 9.605374493294768" fill="#ff730a" stroke="none" /><path d="M 94.98787191387505 79.60689891045804 l -3.7116014364231225 -15.101582001984564 a36.551005246784605,36.551005246784605 0 0,0 0.6122751363584268,-0.1449057429597758 l 3.4511026131021616 15.163233657085211" fill="#ffbe11" stroke="none" /><path d="M 95.33964822691252 79.52364482259891 l -0.9068827729493262 -3.9846034521283342 a25.086502298370245,25.086502298370245 0 0,0 0.42188003867661295,-0.09220663606767435 l 0.8381600101191923 3.999623586291877" fill="#ff1f03" stroke="none" /><path d="M 96.04723909329186 79.375362276772 l -1.2085374832701234 -6.305882990566739 a27.420648186841248,27.420648186841248 0 0,0 0.4643293465600881,-0.08485322016536603 l 1.099813015607142 6.325751692082842" fill="#ff4106" stroke="none" /><path d="M 98.19473922651362 79.07773832637324 l -0.5735896119685797 -6.6476777932222655 a27.672377768491433,27.672377768491433 0 0,0 0.47492363959218814,-0.03686321489025598 l 0.45907578301405744 6.656566270300983" fill="#ff4506" stroke="none" /></svg>